<?xml version="1.0" encoding="UTF-8"?>
<svg xmlns="http://www.w3.org/2000/svg" width="1009.44" height="662.8" viewBox="0 0 1009.44 662.8">
  <g id="background">
    <path d="M740.75,646.35s-15.82-13.8-10.37-21.65c5.44-7.86,14.62,16.88,14.62,16.88,0,0-4.76-29.25,5.1-29.76,9.86-.51,0,29.76,0,29.76,0,0,3.66-7.06,7.23-7.49s2.55,5.98-3.83,12.27h-12.75Z" fill="#dbdd8f"/>
    <path d="M738.25,644.56c-.66-.57-16.03-14.12-10.45-22.17.88-1.27,1.97-1.87,3.15-1.74,4.09.39,8.56,9.48,10.88,14.9-.77-6.78-1.64-20.19,2.71-24.68.94-.97,2.08-1.5,3.4-1.56,1.29-.1,2.34.32,3.14,1.16,3.93,4.11.4,18.74-1.54,25.6,1.45-2,3.5-4.23,5.59-4.49.99-.15,1.77.19,2.22.88,1.28,1.98-.46,7.05-5.59,12.1l-.78-.57c5.04-4.97,6.42-9.65,5.47-11.12-.24-.36-.63-.5-1.18-.44-2.7.33-5.85,5.34-6.83,7.24l-.96-.29c.08-.23,7.55-23.41,2.81-28.37-.59-.62-1.35-.92-2.28-.84-1.03.06-1.91.46-2.67,1.25-5.51,5.7-1.99,27.79-1.96,28.02l-1,.19c-1.82-4.9-7.44-17.71-11.55-18.11-.78-.12-1.48.35-2.15,1.32-5.18,7.48,10.15,20.99,10.3,21.13l-.73.6Z" fill="#b5b77c"/>
    <path d="M844.22,615.41s-16.35-14.26-10.72-22.38c5.63-8.12,15.12,17.45,15.12,17.45,0,0-4.92-30.24,5.27-30.76,10.2-.53,0,30.76,0,30.76,0,0,3.78-7.29,7.47-7.75,3.69-.45,2.64,6.19-3.96,12.68h-13.18Z" fill="#dbdd8f"/>
    <path d="M841.64,613.56c-.68-.59-16.56-14.6-10.8-22.92.91-1.32,2.03-1.93,3.25-1.8,4.22.4,8.85,9.8,11.25,15.4-.79-7.01-1.69-20.87,2.8-25.52.97-1,2.16-1.55,3.52-1.62,1.33-.1,2.42.33,3.25,1.2,4.06,4.25.41,19.38-1.6,26.46,1.49-2.07,3.61-4.38,5.78-4.64,1.03-.15,1.83.2,2.3.91,1.32,2.05-.47,7.29-5.78,12.51l-.8-.59c5.21-5.14,6.63-9.98,5.65-11.49-.25-.38-.65-.52-1.22-.45-2.79.34-6.04,5.52-7.06,7.49l-1-.3c.08-.24,7.81-24.2,2.9-29.33-.61-.64-1.4-.95-2.36-.87-1.07.06-1.97.48-2.76,1.29-5.7,5.89-2.06,28.73-2.02,28.96l-1.03.2c-1.88-5.07-7.69-18.31-11.93-18.72-.81-.12-1.53.37-2.22,1.36-5.36,7.74,10.49,21.7,10.65,21.84l-.76.62Z" fill="#b5b77c"/>
    <path d="M537.55,620.8s-16.4-14.31-10.76-22.46c5.64-8.15,15.17,17.51,15.17,17.51,0,0-4.94-30.34,5.29-30.87,10.23-.53,0,30.87,0,30.87,0,0,3.79-7.32,7.5-7.77,3.7-.45,2.65,6.21-3.97,12.73h-13.23Z" fill="#dbdd8f"/>
    <path d="M534.95,618.94c-.68-.59-16.62-14.65-10.84-23,.92-1.32,2.04-1.94,3.26-1.81,4.24.41,8.88,9.83,11.29,15.45-.8-7.04-1.7-20.94,2.81-25.6.98-1.01,2.16-1.55,3.53-1.62,1.34-.1,2.43.34,3.26,1.2,4.07,4.26.41,19.44-1.6,26.55,1.5-2.08,3.63-4.39,5.8-4.65,1.03-.15,1.84.2,2.3.91,1.33,2.05-.48,7.31-5.8,12.55l-.81-.59c5.23-5.16,6.65-10.01,5.67-11.53-.25-.38-.65-.52-1.22-.46-2.8.34-6.06,5.54-7.09,7.51l-1-.3c.08-.24,7.84-24.28,2.91-29.43-.61-.64-1.4-.95-2.37-.87-1.07.06-1.98.48-2.77,1.3-5.72,5.91-2.06,28.83-2.03,29.06l-1.03.2c-1.89-5.09-7.72-18.37-11.98-18.78-.81-.12-1.54.37-2.23,1.37-5.38,7.76,10.52,21.78,10.68,21.92l-.76.63Z" fill="#b5b77c"/>
    <path d="M1008.44,126.71v410.83c0,40.22-22.33,74.3-60.81,96.46-19.72,11.41-44.49,19.6-70.65,22.82-83.95,10.47-170.43,6.1-347.14-4.85-99.23-6.15-298.74,4.04-398.33,4.85-67.43.6-122.94-46.08-130.55-105.15-1.27-8.74-.91,3.05-.91-424.96C.04,60.84,59.03,3.56,131.51,7.43c67.31,3.6,166.32,17.85,269.52,9.12,121.11-10.23,354.92-19.26,475.95-9.12,72.3,6.06,131.46,53.4,131.46,119.28Z" fill="#daebe8"/>
    <polygon points="243.25 300.15 248.33 480.5 270.43 577.59 319.22 577.31 335.71 577.2 414.03 576.74 420.64 517.53 430.03 328.57 347.45 311.5 347.45 311.5 243.25 300.15" fill="#8fb3e3"/>
    <polygon points="89.95 581.99 126.98 581.99 233.15 581.18 231.63 462.85 227.99 179.44 102.72 238.61 94.38 462.85 89.95 581.99" fill="#8fb3e3"/>
    <polygon points="31.32 459.59 31.32 578.72 122.58 578.72 228.74 577.91 270.43 577.59 319.22 577.23 316.57 403.22 31.32 459.59" fill="#8fb3e3"/>
    <polygon points="268.78 337.31 282.68 336.02 283.44 318.16 268.78 317.51 268.78 337.31" fill="#d7e9fd"/>
    <polygon points="182.59 251.15 196.49 249.86 197.25 232.01 182.59 231.35 182.59 251.15" fill="#d7e9fd"/>
    <polygon points="173.47 333.29 187.37 331.99 188.12 314.14 173.47 313.49 173.47 333.29" fill="#d7e9fd"/>
    <polygon points="142.49 276.85 156.39 275.56 157.14 257.71 142.49 257.05 142.49 276.85" fill="#d7e9fd"/>
    <polygon points="266.22 404.88 280.11 403.58 280.87 385.73 266.22 385.08 266.22 404.88" fill="#d7e9fd"/>
    <polygon points="294.9 374.18 308.79 372.89 309.55 355.03 294.9 354.38 294.9 374.18" fill="#d7e9fd"/>
    <polygon points="792.19 236.5 795.86 449.54 798 573.73 842.54 573.32 857.57 573.18 929.27 572.53 934.97 494.2 953.17 244.7 919.59 242.98 833.73 238.61 792.19 236.5" fill="#8fb3e3"/>
    <polygon points="592.68 575.14 667.77 574.88 741.04 574.62 774.33 574.5 772.46 508.18 767.84 343.94 608.73 378.23 598.14 508.18 592.68 575.14" fill="#8fb3e3"/>
    <polygon points="479.41 332.69 479.42 333.21 482.75 575.97 488.39 575.93 518.85 575.72 538.32 575.58 570.26 575.36 568.02 469.27 565.44 346.79 479.41 332.69" fill="#8fb3e3"/>
    <polygon points="833.73 251.01 918.3 251.01 922.75 223.24 833.73 223.24 833.73 251.01" fill="#8fb3e3"/>
    <polygon points="857.56 237.13 894.47 237.13 894.47 202.59 854.87 201.31 857.56 237.13" fill="#8fb3e3"/>
    <rect x="872.68" y="181.65" width="6.68" height="34.54" transform="translate(1752.03 397.83) rotate(180)" fill="#8fb3e3"/>
    <polygon points="913.85 285.81 926.46 285.81 927.21 264.98 913.85 266.25 913.85 285.81" fill="#d7e9fd"/>
    <polygon points="864.12 285.81 876.74 285.81 877.48 264.98 864.12 266.25 864.12 285.81" fill="#d7e9fd"/>
    <polygon points="894.46 361.01 907.07 361.01 907.81 340.18 894.46 341.46 894.46 361.01" fill="#d7e9fd"/>
    <polygon points="827.05 422.31 839.66 422.31 840.41 401.48 827.05 402.76 827.05 422.31" fill="#d7e9fd"/>
    <polygon points="820.37 313.66 833.04 312.25 833.73 292.82 820.37 292.11 820.37 313.66" fill="#d7e9fd"/>
    <polygon points="844.21 362.7 856.87 361.29 857.56 341.86 844.21 341.15 844.21 362.7" fill="#d7e9fd"/>
    <path d="M1009.44,418.7v115.85c0,8.41-1.1,16.94-2.44,22.52-74.54-2.43-518.11-23.53-475.3-56.43,141.8-108.97,321.26,9.79,355.14-47.51,32.29-54.61,107.84-49.9,122.61-34.42Z" fill="#bfc17f"/>
    <path d="M5.75,564.08c-2.33-7.19-3.2-15.44-4.54-23.44,0-206.11-.26-195.72,0-196.08,0,0,91.35-15.62,133.01,37.12,41.66,52.73,54.38,67.62,126.51,61.19,72.13-6.43,107.26,8.71,108.03,59.06.77,50.35,111.8-37.21,159.39,28.58,42.08,58.16-415.51,38.84-522.4,33.57Z" fill="#bfc17f"/>
    <path d="M76.73,374.91c4.09-5.33,7.41-5.85,10-4.55,2.59,1.3,3.48,3.95-.61,9.27-7.44,9.7-15.74,12.03-15.74,12.03,0,0-1.21-6.91,6.35-16.75Z" fill="#ccd39c"/>
    <path d="M43.27,373.16c-2.47-6-.93-8.54,1.87-9.48,2.8-.94,5.81.08,8.29,6.08,4.5,10.92,1.6,17.91,1.6,17.91,0,0-7.19-3.42-11.76-14.5Z" fill="#ccd39c"/>
    <path d="M153.5,444.12c-.28-6.35,2.07-8.4,5.08-8.6,3.01-.2,5.53,1.52,5.81,7.87.51,11.56-4.68,17.52-4.68,17.52,0,0-5.69-5.06-6.21-16.79Z" fill="#ccd39c"/>
    <path d="M1008.58,547.98c-7.39,57.99-63.32,97.57-130.61,105.85-83.95,10.47-170.43,6.1-347.14-4.85-99.23-6.15-298.74,4.04-398.33,4.85-18.88.17-37.84-3.48-54.76-10.56-43.01-17.91-73.86-56.48-76.53-102.63,277.89-46.13,762.33-42.13,1007.37,7.34Z" fill="#dbdd8f"/>
    <path d="M119.46,544.07s-14-12.22-9.19-19.17c4.82-6.96,12.95,14.95,12.95,14.95,0,0-4.22-25.9,4.52-26.35,8.73-.45,0,26.35,0,26.35,0,0,3.24-6.25,6.4-6.64,3.16-.39,2.26,5.3-3.39,10.86h-11.29Z" fill="#dbdd8f"/>
    <path d="M117.25,542.48c-.58-.51-14.19-12.51-9.25-19.63.78-1.13,1.74-1.66,2.79-1.54,3.62.35,7.58,8.39,9.63,13.19-.68-6.01-1.45-17.87,2.4-21.86.83-.86,1.85-1.33,3.01-1.38,1.14-.09,2.07.29,2.78,1.03,3.48,3.64.35,16.6-1.37,22.67,1.28-1.77,3.1-3.75,4.95-3.97.88-.13,1.57.17,1.97.78,1.13,1.75-.41,6.24-4.95,10.72l-.69-.5c4.47-4.4,5.68-8.55,4.84-9.85-.21-.32-.56-.44-1.04-.39-2.39.29-5.18,4.73-6.05,6.41l-.85-.26c.07-.21,6.69-20.73,2.48-25.12-.52-.55-1.2-.81-2.02-.75-.92.05-1.69.41-2.36,1.11-4.88,5.04-1.76,24.61-1.73,24.81l-.88.17c-1.61-4.34-6.59-15.68-10.22-16.03-.69-.1-1.31.31-1.9,1.17-4.59,6.63,8.98,18.59,9.12,18.71l-.65.53Z" fill="#b5b77c"/>
    <path d="M46.18,542.85s-16.6-14.48-10.88-22.72c5.71-8.25,15.35,17.71,15.35,17.71,0,0-5-30.69,5.35-31.23,10.35-.53,0,31.23,0,31.23,0,0,3.84-7.41,7.58-7.86,3.75-.46,2.68,6.28-4.01,12.87h-13.38Z" fill="#dbdd8f"/>
    <path d="M43.56,540.97c-.69-.6-16.82-14.82-10.96-23.27.93-1.34,2.07-1.96,3.3-1.83,4.29.41,8.98,9.94,11.42,15.63-.81-7.12-1.72-21.18,2.84-25.9.99-1.02,2.19-1.57,3.57-1.64,1.35-.1,2.46.34,3.29,1.22,4.12,4.31.42,19.67-1.62,26.86,1.52-2.1,3.67-4.44,5.87-4.71,1.04-.15,1.86.2,2.33.92,1.34,2.08-.48,7.4-5.86,12.7l-.82-.59c5.29-5.22,6.73-10.13,5.74-11.67-.25-.38-.66-.52-1.24-.46-2.83.35-6.13,5.6-7.17,7.6l-1.01-.3c.08-.25,7.93-24.57,2.94-29.77-.62-.65-1.42-.97-2.39-.88-1.09.06-2,.48-2.8,1.31-5.78,5.98-2.09,29.16-2.05,29.4l-1.05.2c-1.91-5.15-7.81-18.59-12.11-19-.82-.12-1.56.37-2.25,1.38-5.44,7.85,10.65,22.03,10.81,22.17l-.77.63Z" fill="#b5b77c"/>
    <path d="M176.94,527.66s-17.18-14.99-11.27-23.52c5.91-8.54,15.89,18.34,15.89,18.34,0,0-5.17-31.77,5.54-32.33,10.71-.55,0,32.33,0,32.33,0,0,3.97-7.67,7.85-8.14,3.88-.47,2.77,6.5-4.16,13.33h-13.85Z" fill="#dbdd8f"/>
    <path d="M174.22,525.71c-.71-.62-17.41-15.34-11.35-24.09.96-1.38,2.14-2.03,3.42-1.89,4.44.42,9.3,10.29,11.82,16.18-.84-7.37-1.78-21.93,2.95-26.81,1.02-1.06,2.26-1.63,3.69-1.7,1.4-.11,2.54.35,3.41,1.26,4.27,4.46.43,20.36-1.68,27.8,1.57-2.18,3.8-4.6,6.07-4.87,1.08-.16,1.93.21,2.41.95,1.39,2.15-.5,7.66-6.07,13.15l-.84-.61c5.48-5.4,6.97-10.48,5.94-12.08-.26-.4-.68-.54-1.28-.48-2.93.36-6.35,5.8-7.42,7.87l-1.05-.32c.08-.25,8.2-25.43,3.05-30.82-.64-.67-1.47-1-2.48-.91-1.12.06-2.07.5-2.9,1.36-5.99,6.19-2.16,30.19-2.12,30.43l-1.08.21c-1.98-5.33-8.09-19.24-12.54-19.67-.85-.13-1.61.38-2.33,1.43-5.63,8.13,11.02,22.8,11.19,22.95l-.8.66Z" fill="#b5b77c"/>
    <path d="M883.05,536.89s-16.82-14.68-11.04-23.04c5.79-8.36,15.56,17.96,15.56,17.96,0,0-5.07-31.12,5.43-31.66,10.49-.54,0,31.66,0,31.66,0,0,3.89-7.51,7.69-7.97,3.8-.46,2.71,6.37-4.07,13.05h-13.57Z" fill="#dbdd8f"/>
    <path d="M880.39,534.99c-.7-.61-17.05-15.03-11.12-23.59.94-1.35,2.09-1.99,3.35-1.85,4.35.42,9.11,10.08,11.57,15.85-.82-7.22-1.74-21.47,2.88-26.26,1-1.03,2.22-1.59,3.62-1.66,1.37-.1,2.49.34,3.34,1.23,4.18,4.37.42,19.94-1.64,27.23,1.54-2.13,3.72-4.5,5.95-4.77,1.06-.15,1.89.2,2.36.93,1.36,2.11-.49,7.5-5.94,12.87l-.83-.6c5.37-5.29,6.82-10.27,5.82-11.83-.25-.39-.67-.53-1.25-.47-2.87.35-6.22,5.68-7.27,7.7l-1.03-.31c.08-.25,8.04-24.91,2.98-30.18-.63-.66-1.44-.98-2.43-.9-1.1.06-2.03.49-2.84,1.33-5.86,6.06-2.12,29.57-2.08,29.81l-1.06.2c-1.94-5.22-7.92-18.84-12.28-19.26-.83-.12-1.58.38-2.29,1.4-5.52,7.96,10.79,22.33,10.96,22.48l-.78.64Z" fill="#b5b77c"/>
    <path d="M1001.28,574.78c-3.64,8.35-7.82,15.44-13.33,22.61-4.88,6.38-10.56,11.98-10.6,11.98-107.71-6.83-470.7-22.5-844.85,44.45-59.14.52-108.81-35.35-125.35-83.19,96.78-12.94,504.3-59.12,994.13,4.14Z" fill="#b8d5dc"/>
    <path d="M432.97,417.61c-1.11-.2-2.2.4-2.43,1.33s.49,1.84,1.6,2.04c1.11.2,2.2-.4,2.43-1.33s-.49-1.84-1.6-2.04Z" fill="#daebe8"/>
    <path d="M1009.44,123.71v43.3c-44.34-7.71-38.08-67.79-56.27-48.62-21.74,22.9-98.3,50.72-126.12,4.38-27.82-46.35,35.83-86.32-39.49-85.53-50.43.53-67.41-22.12-73.12-37.15,62.2-.47,120.2.71,163.53,4.34,72.3,6.06,131.46,53.4,131.46,119.28Z" fill="#bfc17f"/>
  </g>
  <g id="clouds">
    <path d="M304.14,106.48s-8.43-13.74-29.76-12.02c-21.33,1.72-18.79,15.49-28.95,14.2s-24.38,0-27.43,8.61c-3.05,8.61-16.76,3.87-17.27,11.19-.51,7.32,15.74,12.48,34.54,6.03,18.79-6.46,27.93,5.02,54.34,2.94,26.41-2.08,29.68-4.66,45.31-3.37,15.63,1.29,15.26-7.78,8.15-13.8-7.11-6.03-35.89-5.45-38.94-13.77Z" fill="#fff" opacity=".6"/>
    <path d="M671.4,126.87s-10.56-17.21-37.28-15.05-23.54,19.41-36.26,17.79c-12.72-1.62-30.53,0-34.35,10.78-3.82,10.78-20.99,4.85-21.63,14.02-.64,9.16,19.72,15.63,43.26,7.55,23.54-8.09,34.99,6.28,68.07,3.68,33.08-2.6,37.18-5.84,56.76-4.22,19.58,1.62,19.11-9.74,10.21-17.29-8.91-7.55-44.96-6.83-48.77-17.25Z" fill="#fff" opacity=".4"/>
    <path d="M756.59,94.09s-5.92-11.62-20.9-10.17c-14.98,1.46-13.2,13.11-20.33,12.01-7.13-1.09-17.12,0-19.26,7.28-2.14,7.28-11.77,3.28-12.13,9.47-.36,6.19,11.06,10.56,24.26,5.1,13.2-5.46,19.62,4.24,38.17,2.49,18.55-1.76,20.85-3.94,31.83-2.85,10.98,1.09,10.72-6.58,5.72-11.68-4.99-5.1-25.21-4.61-27.35-11.65Z" fill="#fff" opacity=".6"/>
    <path d="M795.59,159.91s-4.16-8.03-14.7-7.02-9.28,9.05-14.3,8.3c-5.02-.75-12.04,0-13.55,5.03s-8.28,2.26-8.53,6.54c-.25,4.28,7.78,7.29,17.06,3.52,9.28-3.77,13.8,2.93,26.84,1.72,13.04-1.21,14.66-2.72,22.38-1.97,7.72.75,7.54-4.55,4.03-8.07-3.51-3.52-17.73-3.19-19.23-8.05Z" fill="#fff" opacity=".6"/>
  </g>
  <g id="right_wheel">
    <path d="M650.43,483.35c2.03-.08,4.28-.08,6.31,0,7.86.31,17.02,2.79,23.62,6.07,18.63,9.24,24.37,21.74,30.67,37.88.56,1.43.52,4.72.58,6.04.06,1.41.78,4.31.93,6.37-.82.88-.82,3.38,0,4.26-.2,1.92.06,3.46.01,4.94,0,.29-.95.23-1.01.57-.29,1.65.5,5.96-1.44,7.08l.52,1.36-.89.34.38,1.06-.91.51c-4.58,17.86-24.34,34.6-44.7,35.76-3.82.22-8.79.21-12.61,0-27.31-1.51-49.43-25.98-52.4-51.62.73-.07.73-1.35,0-1.42-.33-4.18-.34-6.72,0-10.89l.41-.65-.41-.3.49-2.37.43-.65-.43-.3c4.28-24.79,24.66-42.98,50.46-44.04ZM652.77,486.3c-39.55.7-61.28,41.69-44.49,75.37,17.95,35.99,69.94,43.06,92.81,7.83,23.08-35.56-5.57-83.95-48.32-83.2Z" fill="#7f6c72"/>
    <path d="M664.5,595.59c-2.99.84-6.78.51-9.95.48-.82,0-2.16.3-2.66-.48,3.82.21,8.8.22,12.61,0Z" fill="#acbfc2"/>
    <path d="M712.53,543.97c-.82-.88-.82-3.38,0-4.26.15,2.08.23,2.02,0,4.26Z" fill="#9a8b8f"/>
    <path d="M656.74,483.35c-2.03-.08-4.28-.08-6.31,0,1.56-.8,4.85-.79,6.31,0Z" fill="#e6cacb"/>
    <path d="M599.49,543.97c-.11-.94.02-1.22,0-1.42.73.07.73,1.35,0,1.42Z" fill="#aca2a6"/>
    <path d="M599.98,528.34c-.23.07-.45-.06-.41-.3.07-.45.4-.61.41-.65l.43.3-.43.65Z" fill="#b0a2a5"/>
    <path d="M599.49,531.65s-.51.07-.47-.28l.47-.66.41.3-.41.65Z" fill="#b0a2a5"/>
    <path d="M652.77,486.3c42.75-.76,71.4,47.64,48.32,83.2-22.86,35.23-74.86,28.16-92.81-7.83-16.79-33.68,4.94-74.67,44.49-75.37ZM650.33,499.11c-21.95,2.42-34.88,24.81-29.83,44.95,8.54,34.02,58.16,41.55,71.89,7.95,11.14-27.26-12.34-56.17-42.07-52.9Z" fill="#797f89"/>
    <path d="M650.33,499.11c29.73-3.27,53.21,25.64,42.07,52.9-13.73,33.61-63.36,26.07-71.89-7.95-5.05-20.15,7.88-42.54,29.83-44.95ZM675.46,508.17c-23.73-16.04-54.97,1.45-52.68,29.39,2.42,29.6,41.46,45.31,61.59,21.3,13.25-15.8,7.62-39.51-8.92-50.7Z" fill="#7e6b71"/>
    <path d="M675.46,508.17c16.54,11.18,22.16,34.9,8.92,50.7-20.14,24.01-59.17,8.3-61.59-21.3-2.29-27.95,28.95-45.44,52.68-29.39ZM682.83,534.38c1.61-1.68-1.51-11.25-4.97-11.25-1.78,1.73,1.68,3.77,2.42,6.15.35,1.1.41,7.34,2.55,5.1ZM674.68,527.39c-.34-.24-2.6.71-2.37,1.58.96.67,2.51,4.8,3.58,4.57,2.95-.64-1.17-4.73-1.2-6.15ZM659.65,530.23c-1.42.21-2.48.86-3.17.94-1.85.2-5.53-2.15-7.53,1.16-1.61,2.66.48,4.6.49,6.19,0,2.15-2.71,3.96-.66,7.31,1.79,2.92,4.44,1.27,6.5,2.17,2.27.99,1.77,3.97,6.55,3.06,3.04-.58,2.61-3.9,3.41-5.19,1.04-1.69,4.95-1.01,4.1-6.36-.46-2.88-3.03-2.6-3.62-3.57-.73-1.19.39-3.06-1.42-4.77-.9-.85-2.91-1.49-4.15-1.39-.24.02-.48.21-.49.47ZM644.06,554.44c-.07-.11-1.66-.55-2.39-1.21-.86-.79-1.96-4.06-3.36-3.1-1.81,1.23,3.3,6.98,5.08,6.63.66-.13,1.03-1.77.68-2.32ZM636.32,551.12c-1.21-.82-2.87.33-2.13,2.3.52,1.39,6.2,7.03,7.74,6.65,2.71-.67-3.66-4.83-4.12-5.44-.72-.95-1.33-3.4-1.49-3.51Z" fill="#c1c7d2"/>
    <path d="M659.65,530.23c.22-.03.43-.25.49-.47,1.24-.1,3.26.54,4.15,1.39,1.81,1.71.69,3.58,1.42,4.77.59.97,3.16.69,3.62,3.57.85,5.35-3.05,4.68-4.1,6.36-.8,1.3-.37,4.61-3.41,5.19-4.78.92-4.28-2.06-6.55-3.06-2.06-.9-4.71.75-6.5-2.17-2.06-3.35.67-5.15.66-7.31,0-1.58-2.1-3.52-.49-6.19,2.01-3.31,5.68-.96,7.53-1.16.69-.08,1.76-.72,3.17-.94ZM657.09,537.45c-3.31.76-1.75,5.77.48,6.42,5.87,1.72,7.46-8.25-.48-6.42Z" fill="#7c828c"/>
    <path d="M682.83,534.38c-2.14,2.24-2.21-4-2.55-5.1-.75-2.37-4.2-4.42-2.42-6.15,3.46,0,6.58,9.57,4.97,11.25Z" fill="#85747a"/>
    <path d="M636.32,551.12c.16.11.77,2.56,1.49,3.51.46.61,6.83,4.78,4.12,5.44-1.54.38-7.22-5.26-7.74-6.65-.74-1.97.91-3.12,2.13-2.3Z" fill="#847379"/>
    <path d="M644.06,554.44c.35.55-.01,2.19-.68,2.32-1.78.35-6.89-5.4-5.08-6.63,1.4-.96,2.5,2.31,3.36,3.1.72.66,2.32,1.1,2.39,1.21Z" fill="#86757b"/>
    <path d="M674.68,527.39c.03,1.42,4.15,5.51,1.2,6.15-1.06.23-2.62-3.89-3.58-4.57-.23-.87,2.03-1.82,2.37-1.58Z" fill="#85747a"/>
    <path d="M659.65,530.23c0-.26.24-.45.49-.47-.05.23-.26.44-.49.47Z" fill="#a69da8"/>
    <path d="M657.09,537.45c7.94-1.82,6.35,8.15.48,6.42-2.23-.65-3.78-5.66-.48-6.42Z" fill="#bdc3ce"/>
  </g>
  <g id="left_wheel">
    <path d="M347.71,491.99c2-.09,4.31-.09,6.31,0,19.4.87,36.54,11.29,46.78,27.51,3.41,5.39,4.85,10.58,7.1,15.38-.73,2.57,1.94,6.1.95,9.21l.49.95c-.41,5.3.18,11.54-.46,16.75-.04.34-.94.24-.99.58-.64,4.39-1.64,8.11-3.3,11.9-6.84,15.66-25.84,29.01-43.29,29.96-3.82.21-8.79.22-12.61,0-28.97-1.65-50.09-27.51-52.4-54.46.81-1.92.82-5.56,0-7.58,2.48-27.58,22.36-48.88,51.43-50.2ZM350.05,494.94c-36.24.42-58.55,35.65-47.6,68.46,12.54,37.57,63.42,52.08,91.11,20.94,30.56-34.35,2.42-89.93-43.51-89.4Z" fill="#7f6d72"/>
    <path d="M296.28,549.77c-.28-3.32-.3-4.21,0-7.58.82,2.02.81,5.66,0,7.58Z" fill="#998a8e"/>
    <path d="M361.29,604.23c-2.99.84-6.78.51-9.95.48-.82,0-2.16.3-2.66-.48,3.82.22,8.79.21,12.61,0Z" fill="#acc0c2"/>
    <path d="M354.01,491.99c-2-.09-4.31-.09-6.31,0,1.56-.8,4.85-.79,6.31,0Z" fill="#e6cbcd"/>
    <path d="M408.84,544.08h.97c.19.5-.48.89-.48.95l-.49-.95Z" fill="#cac2c4"/>
    <path d="M350.05,494.94c45.93-.53,74.07,55.05,43.51,89.4-27.7,31.13-78.57,16.63-91.11-20.94-10.95-32.8,11.36-68.04,47.6-68.46ZM349.06,507.76c-26.88,2.49-40.28,30.85-28.12,53.69,14.66,27.54,56.21,29.13,68.58-.94,10.73-26.08-11.96-55.39-40.46-52.75Z" fill="#797f89"/>
    <path d="M349.06,507.76c28.5-2.64,51.18,26.66,40.46,52.75-12.37,30.07-53.91,28.48-68.58.94-12.16-22.84,1.24-51.2,28.12-53.69ZM348.19,511.41c-11.26.7-21.9,9.32-25.95,19.42-8.72,21.75,6.31,44.69,29.34,48.3,1.02.16,1.58.39,2.91.47,1.04.07,2.37.08,3.4,0,1.17-.09,1.7-.36,2.43-.47,41.73-6.27,34.39-65.2-3.88-67.72-2.29-.8-5.99-.79-8.25,0Z" fill="#7d6b71"/>
    <path d="M348.19,511.41c2.47-.15,5.79-.16,8.25,0,38.27,2.52,45.61,61.45,3.88,67.72-.78.03-2.01-.29-2.43.47-1.03.08-2.36.07-3.4,0-.54-.84-2-.41-2.91-.47-23.04-3.6-38.06-26.54-29.34-48.3,4.05-10.1,14.68-18.72,25.95-19.42ZM376.72,532.34c-.58-.32-1.63-.02-2.33-.1.1,1.98,1.89,3.27,2.66,5.22.66,1.66.98,3.87,1.25,5.65l1.91.03c.94-.89-2-9.96-3.49-10.79ZM369.54,536.98c-.29.37,2.09,5.82,3.63,5.2,2.04-.6-.9-5.06-2-5.59l-1.63.39ZM346.25,546.92v.95c-1.85,2.04-1.35,6.92,1.48,8.26,1.48.7,3.61.18,4.32.5,2.34,1.05,2.09,4.05,6.95,2.97,3.12-.69,2.5-3.77,3.5-5.1s4.29-1.03,4.08-5.42c-.16-3.41-3.04-3.18-3.62-4.04-.46-.68-.1-2.08-.32-3-.69-2.9-4.71-3.88-7.32-3.08-.68.21-1.07,1.12-1.62,1.24-1.28.27-3.31-1.96-6.45-.11-2.04,1.21-2.66,5.5-1.01,6.83ZM337.01,558.78l-1.69.44c-1.26,1.72,3.22,6.55,5.54,5.65l.54-1.82c-2.15-.39-3.97-2.23-4.38-4.26ZM333.15,560.66c-.09-.08.39-1.56-1.64-.9-1.72.56.39,3.42.96,4.17.75,1,4.32,4.47,5.38,4.65,2.14.38,1.74-1.26.6-2.44-1.7-1.76-3.79-2.08-4.32-4.54-.35-1.6-.69-.68-.97-.95Z" fill="#c2c7d2"/>
    <path d="M356.44,511.41c-2.46-.16-5.78-.15-8.25,0,2.25-.79,5.96-.8,8.25,0Z" fill="#a3b3bd"/>
    <path d="M354.5,579.6c-1.34-.08-1.89-.31-2.91-.47.91.07,2.37-.36,2.91.47Z" fill="#ad989f"/>
    <path d="M360.32,579.13c-.73.11-1.25.38-2.43.47.41-.77,1.65-.45,2.43-.47Z" fill="#ad989f"/>
    <path d="M346.25,547.87c.06-.06,1.93.09.97-.94-.1-.11-.83.11-.97,0-1.65-1.33-1.03-5.62,1.01-6.83,3.14-1.85,5.17.38,6.45.11.55-.11.94-1.03,1.62-1.24,2.61-.8,6.63.18,7.32,3.08.22.92-.14,2.32.32,3,.59.86,3.46.63,3.62,4.04.21,4.38-3.04,4.03-4.08,5.42s-.39,4.41-3.5,5.1c-4.86,1.08-4.62-1.93-6.95-2.97-.72-.32-2.84.2-4.32-.5-2.83-1.34-3.32-6.22-1.48-8.26ZM352.69,547.05c-3.94,4.11,7.01,9.1,6.7,2.02-.17-3.71-4.83-3.96-6.7-2.02Z" fill="#7d828c"/>
    <path d="M376.72,532.34c1.5.84,4.43,9.91,3.49,10.79l-1.91-.03c-.27-1.78-.59-3.98-1.25-5.65-.77-1.94-2.56-3.24-2.66-5.22.7.08,1.75-.23,2.33.1Z" fill="#827177"/>
    <path d="M334.12,561.6c.53,2.46,2.62,2.78,4.32,4.54,1.14,1.18,1.54,2.82-.6,2.44-1.06-.19-4.63-3.65-5.38-4.65-.56-.75-2.68-3.61-.96-4.17,2.03-.66,1.56.81,1.64.9v.95s.97,0,.97,0Z" fill="#84747a"/>
    <path d="M337.01,558.78c.41,2.04,2.24,3.87,4.38,4.26l-.54,1.82c-2.32.9-6.8-3.92-5.54-5.65l1.69-.44Z" fill="#85747a"/>
    <path d="M369.54,536.98l1.63-.39c1.11.53,4.05,4.99,2,5.59-1.54.62-3.92-4.83-3.63-5.2Z" fill="#87777d"/>
    <path d="M346.25,546.92c.14.11.87-.1.97,0,.97,1.03-.91.88-.97.94v-.95Z" fill="#9aa0aa"/>
    <path d="M333.15,560.66c.28.26.62-.65.97.95h-.97s0-.95,0-.95Z" fill="#a298a0"/>
    <path d="M352.69,547.05c1.87-1.94,6.53-1.69,6.7,2.02.32,7.08-10.64,2.09-6.7-2.02Z" fill="#bdc3ce"/>
  </g>
  <g id="bunny_bike">
    <path d="M717.46,485.51c-8.18-16.24-21.35-27.06-39.3-32.11-4.1-1.15-8.37-1.45-12.62-1.31-.13-1.02.82-1.31,1.03-2.33,4.17-20.15-4.09-27.6-14.64-42.78-7.12-10.24-12.57-23.57-17.19-35.17-.75-1.87-5.7-14.23-5.02-14.9,4.19.83,9.18-1.51,13.04-1.42,1.02.02,1.3,1.17,2.51,1.41,3.71.74,17.15-4.48,20.24-6.97,3.58-2.88,1.51-3.91,1.14-7.22-.97-8.75-1.49-17.95-2.75-26.64-.89-6.12-.85-11.25-8.64-11.16-2.74.03-4.15,1.15-6.35,1.54-5.7,1.02-13.44-.05-12.36,8.25l-17.2,4.54c-2.07-.62-3-2.44-5.3-2.85-3.62-.66-9.4.61-12.63,2.35-1.13.61-7.01,5.61-7.52,5.25-1.57-3.1-3.18-6.28-5.06-9.22-6.67-10.43-17.4-24.69-26.56-32.97-.15-.14-1.1.29-1.06-.26v-.76c.3-.08.96.09,1.06,0,5.33-5.01,10.1-17.17,11.59-24.18l-.52-.31.52-.72c.41-1,.41-2.04.53-3.09l-.45-.32.45-.71c.48-6.49,1.03-13.05,0-19.55-.56-.39-.82-1.37,0-1.54.25-1.59-.39-3.09-.53-4.63-.59-.37-.82-1.37,0-1.54l-.53-3.09-.52-.72.52-.31-.53-3.09-.52-.72.52-.31c-.13-.87-.24-1.73-.53-2.57l-.52-.72.52-.31v-2.06h-1.05s.52-1.03.52-1.03c-1.33-7.25-2.79-14.56-5.01-21.61-2.12-6.74-5.08-10.72-5-18.01l-.44-.32.44-.71.55-15.71-.55-4.35-.44-.71.44-.32c-1.93-26.81-11.45-67.43-33.47-85.4-31.33-25.58-48.91,22.53-48.71,46.29.82.18.57,1.16,0,1.54.06,1.32-.5,2.53-.55,3.84-.2,5.65.38,11.16.55,16.74l.52.26-.52.77c.02,1.47.15,3.22,0,4.63h2.63c-.16-1.03-.43-2.05-.53-3.09-.08-.88.02-1.33,0-1.54-.12-1.67-.53-4.67-.53-5.92v-10.81c0-1.29.42-4.18.53-5.92.01-.22-.04-.86,0-1.54.07-1.24.37-2.78.53-4.12,0-.03-.52.09-.52-.31l.52-.72c2.15-27.38,22.05-65.07,50.84-32.42,15.63,17.72,18.28,37.85,24.49,59.18.04.13.57.34.52.72l-.52.31c.82,3.32.7,7,1.58,10.29.06.22.85.44,0,1.03.22,1.49.17,3.02.53,4.63.07.33,1.05.77,0,1.54.18,1.5.53,5.18.53,6.43v9.78c0,1.17-.38,4.39-.53,5.92,1.05.77.08,1.2,0,1.54-.26,1.14-.65,2.59-.43,3.73.39,2.06,3.78,8.3,4.79,11.31,4.31,12.85,7.18,29.34,8.28,42.85,1.45,17.79.89,37.05-12.45,50.62-2.59-1.7-4.51-2.43-7.56-3.03-.83.87-3.41.86-4.21,0-11.6,1.86-17.43,11.16-13.18,22.1-10.44,4.57-21.59,7.79-32.99,9.22-4.79.6-11.22,1.21-16,1.1.24.55,1.73,1.96,2.11,2.06,1.69.44,9.18-1.29,10.01-.51l-2.61,9.04-9.26-2.33c-.71-.62.24-1.16.29-1.57.06-.5-.02-1.04,0-1.54-1.67-1.34-4.37,3.03-3.16,4.63,23.73,8.25,47.45,8.33,70.96.11,27.22-9.52,43.71,22.87,25.46,39.79-13.52,12.54-25.52-3.15-38.09-1.18-2.56.4-5.76,1.75-8.72,2.28-38.25,6.96-75.24-17.14-92.38-49.4-.85-1.61-3.39-6.34-3.6-7.81-.12-.8-.01-.89.8-.78,4.36,1.71,8.79,3.28,13.32,4.49,4.59,1.23,10.72,1.73,14.78,3.06,4.01,1.32,8.48,7.22,13.78,7.38.72.02,1.46.13,2.13-.24.56-.36.36-1.08.5-1.3-.65-.43-1.35-.48-2.11-.51-.17,0-.36.02-.53,0-.03,0-.17.36-.54.27-2.04-.47-6.48-3.19-7.88-4.89,3.21.02,6.8.99,10.01.51,1.46-.22,1.69-.97,2.63-1.54-20.22-.97-41.16-5.52-58.83-15.35-18.64-10.37-28.24-28.79-31.78-48.97-.22-1.24.01-.96,0-1.03-.16-1.1-.45-2.62-.53-3.6-.07-.94.01-1.06,0-1.54-.1-4.34-.17-9.05,0-13.38.02-.39-.07-.66,0-1.54.41-5.36,1.69-12.3,3.16-17.49.08-.27-.06-.7,0-1.03h.78c.56-.04.14.79.27,1.03,1.71,3.18,3.11,7.15,7.91,5.94,3.66-.92,4.58-4.98,5.78-5.72.48-.3,2.66.43,3.91.28,3.82-.47,7.63-5.84,7.73-9.5.08-2.98-1.91-4.73-2.04-6.26-.07-.78.79-1.6.92-2.52.73-5.14-4.2-9.3-9.2-9.49-.88-.03-1.9.64-2.56.56-.24-.03-1.97-2.85-3.31-3.57-1.58-.85-3.63-.98-5.39-1.17l-3.23-20h-1.05c-.21-.55.52-.96.52-1.03.17-1.47-.43-2.42-.53-3.6-.07-.78,0-.96,0-1.03-.14-1.56-.39-3.08-.53-4.63-.05-.58,0-.95,0-1.03-.22-2.54-.37-5.17-.53-7.72-.28-4.49-.29-6.78,0-11.32.15-2.38.31-4.83.53-7.2,0-.06-.06-.43,0-1.03.13-1.37.39-2.72.53-4.12,0-.03-.52.09-.52-.31l.52-.72c.21-.84.59-1.68.53-2.57,0-.07-.73-.51-.52-1.03h1.05c1.66-19.62,15.2-50.19,40.1-34.8,19.61,12.11,32.2,44.54,37.86,65.67.7-.04,1.41.06,2.11,0-3.42-14.31-8.79-28.31-16.06-41.17-7.9-13.98-25.15-36.88-44.35-29.41-22.52,8.77-25.65,54.81-23.35,74.7l.45.71-.45.32c.51,10.65,2.66,21.12,4.66,31.55-4.81,3.66-7.77,6.8-5.72,13.21-3.7.08-5.78,4.23-5.83,7.47-.07,4.34,2.72,7.49,6.36,9.52.42.23,1.39-.57,1.05,1.03h-1.05c-.08,5.42-2.14,12.53-2.63,18.53l.52.26-.52.77c-.24,4.08-.94,7.69,0,11.83.56.39.82,1.37,0,1.54l.53,4.12.52.72-.52.31c1.2,7.92,3.3,16.43,6.85,23.67.5,1.01,1.95,3.47,2.63,4.63,2.48,4.2,5.76,7.94,8.69,11.84l11.33,10.02c-12.38,9.89-21.11,23.06-27.39,37.31-.55,1.26-1.7,3.05-2.11,4.12-.35.93-.67,2.45-1.05,3.6-.34,1.01-.75,2.1-1.05,3.09-.6,2-1.05,4.15-1.58,6.17-.22.83.36,2.26-1.05,2.57-.49-.94.5-2.22.52-2.57.14-2.09.35-4.16.53-6.17.08-.85-.08-1.73,0-2.57.12-1.19.43-2.19.53-3.09.11-.99-.12-2.11,0-3.09,1.87-14.96,5.97-29.42,9.32-44.09-.88-4.38-7.07-1.35-4.25-7.3,1.86-3.93,5.4-.69,6.78-3.67.96-2.08-.64-2.87-.74-4.37-.04-.57.49-1.13.48-1.28-.16-2.43-1.23-3.11-2.11-5.15-1.49-1.33-3.43-.03-5.03.02-2.8.09-5.09-1.46-7.19,2.19-2.61,4.51,1.71,4.25,1.68,8.08-1.87.03-2.81-1.47-4.72-.51-1.36-4.06-2.86-8.3-4.67-12.18-.78-1.67-4.03-6.44-4.23-7.24-.44-1.74,1.51-1.72,2.06-2.56,1.31-2.01-.47-2.71-.94-4.15-.59-1.8.19-3.23-1.97-4.76-3.93-2.79-4.76,1.75-5.85,1.98-1.14.25-4.88-1.35-5.9,1.99-1.32,4.31,2.59,4.45,3.46,5.92.87,1.47-1.51,5.66,3.02,5.59,2.09-.03,2.6-2.53,4.47-.82,1.27,1.16,8.04,16.09,7.37,16.73-1.07-.64-4.15-.87-4.75-1.27-.93-.62-.54-3.53-4.4-3.2-2.7.23-3.36,3.03-4.28,4.99l-3.95-7.2c5.38-1.38,3.34-3.28,2.26-6.59-.66-2.03-.05-4.17-2.92-5.38-4.23-1.78-3.9,2.15-4.68,2.62-1.12.66-4.29-.99-5.48,2.62-1.2,3.65,1.41,3.54,1.81,5.02.34,1.29-2.35,3.63-.19,5.8,2.94,2.97,6.33-1.54,7.09-1.02l3.7,8.23c-1.63-.03-3.29.76-3.59,2.43-.18,1.01,1.25,2.72-1.15,2.72,1.24-2.9.45-11.16-4.21-9-.96.45-1.32,2.37-2.59.45-1.3-1.98-1.88-8.91-2.16-11.52-.26-2.43-.38-2.03,0-4.63.28-1.93.57-3.76,1.05-5.66l-2.63-.51c-1.07,5.05-1.23,8.44-1.07,13.66.04,1.41.89,3.23.57,4.5-.15.57-1.27.61-1.64,1.08-1.57,2.04.39,10.19.03,10.6l-4.21-2.58v-.75c2.49-1.78,3.98-5.65.68-7.37-.78-.4-2.17-.36-2.66-.75-1.1-.87-1.05-3.63-4.32-4.3-4.86-1-4.07,3.5-5.58,5.44-.55.71-1.79.83-2.58,1.6-4.21,4.08.15,9.81,5.5,8.71-.65,4.88,1.87,5.92,6.32,4.64.18.86-.34,1.24-1.05,1.54-.23,3.21,2,1.19,3.68,1.8-2.47,2.04-6,1.09-8.96,1.29v3.6c4.24,3.91,8.12,7.38,11.29,12.39,3.97,6.27,6.38,14.14,10.31,20.54-10.22-.48-22.36,4.77-25.55,14.93-4.7,14.99,6.05,29.11,16.33,39.11,8.09,7.88,22.91,9.93,32.87,4.31,1.06-.6,7.46-5.79,7.96-5.34l2.11,7.71c-12.43.12-39.46,7.24-25.55,23.68l5.54,5.13-18.57,2.71c-25.48,7.4-56.5,24.78-63.35,51.83-2.31,9.13-1.14,20.35-3.56,28.43-2.12,7.06-13.85,15.4-4.23,23.44l21.23,1.14c0,.16-.03.32-.05.47,1.42-.07,2.83-.13,4.25-.17.04-.07.06-.15.1-.22l5.04.12c12.9-.11,25.79.7,38.67,1.65l38.28,1.34c.11.18.2.35.31.53.35.02.71.03,1.06.05,1.1.02,2.21.05,3.31.06-.12-.25-.23-.49-.35-.74,2.9,1.14,7.04-.09,9.65.52.09.02.14.08.18.15,3.59-.12,7.16-.37,10.73-.82,3.24-.4,6.26-1.17,9.28-2.03.93-1.13,3.76-1.95,4.9-2.74,3.49-2.45,7.21-8.35,7.97-12.54l89.26,4.59c10.42,1.13,20.56.13,30.93-1.68,8.14-1.42,16.12-3.72,23.86-6.54-2.76,5.57-7.92,13.74-5.96,20.21.2.66,5.16,5.39,6.04,5.94,1.83,1.14,4.23,1.89,6.58,2.56,2.25.39,4.45.97,6.74,1.31,2.43.36,4.96.36,7.45.32,5.13-.18,10.24-.8,15.23-2.04,0,.08,0,.16,0,.24.71-.23,1.42-.48,2.12-.76,1.21-.79,2.41-1.6,3.59-2.45,1.9-1.73,4.38-3.46,5.61-4.75,3.63-3.78,10.18-13.9,14.29-16.38.47-.59,1.02-1.15,1.67-1.69.72-.6,1.46-1.18,2.19-1.74,0,0,0,0,0-.01.02-.03.11-.08.22-.16,7.87-5.92,16.48-9.46,26.16-10.62v-.25c4.72-1.02,9.66-2.72,14.58-3.31.91-.44,1.85-.75,2.75-.81,3.69-.23,6.71-.21,10.28.73,1.02.27,1.97.65,2.87,1.11,6.5,1,15.24,3.66,19.55-1.09,3.5-3.86.75-8.57-1.3-12.64ZM389.01,194.08c.75-4.75,4.82-3.92,5.53-4.89.85-1.14-1.49-5.66.75-9.04,2.93-4.42,11.38-4.88,12.16,1.24,5.01-1.41,12.84.64,11.54,6.98-.25,1.2-1.59,1.66-1.6,2.58,0,1.06,2,2.01,2.42,3.32,1.86,5.82-4.27,13.37-10.03,8.77-1.14.25-1.79,7.7-6.81,7.2-4.1-.4-3.66-5.9-4.49-6.47-6.06.32-10.44-3.61-9.49-9.71ZM396.87,277.66c-.55.53-2.11-1.02-1.58-1.54.55-.53,2.11,1.02,1.58,1.54ZM396.87,271.75l-1.22,1.19-1.33-.52-.08-1.97,2.63,1.29ZM366.32,253.99c-1.64.24-2.87-.93-2.63-2.57,1.64-.24,2.87.93,2.63,2.57ZM366.85,259.13l.53-2.05h1.04c.2,1.23-.25,2.18-1.57,2.05ZM369.49,251.42c-.13-1.27-.04-2.71,1.57-2.57.13,1.27.04,2.71-1.57,2.57ZM355.78,265.31v2.05c-2.76.22-3.24-2.77,0-2.05ZM354.73,273.54c-.64-1.14,2.03-3.69,2.63-3.08.44.44-1.4,3.51-2.63,3.08ZM360.52,264.79h-1.57c-.06-1.07-.2-1.93.79-2.56.99.63.85,1.49.79,2.56ZM329.05,280.36c.88-.85,3.32-.96,4.13.09,1.77,5.19-7.73,3.38-4.13-.09ZM333.94,274.06c1.96-.57,4.1,3.54,1.49,4.03-1.99.37-3.36-2.81-1.49-4.03ZM335.24,288.98c.01-1.71-.32-3.67.78-5.14,1.22,1.13,1.55,5.19-.78,5.14ZM656.32,308.02c.69.07,2.3.28,2.76.64,1.59,1.25,1.47,8.17,1.77,10.36,1.07,7.59,1.79,15.01,2.59,22.68.15,1.45,1.55,4.76.53,5.67-.22.2-3.74,2.34-3.97,2.35-1.74.01-2.53-6.92-2.83-8.58-1.65-8.99-2.76-18.01-3.81-27.15-.2-1.72-1-3.44-1.01-5.2-.01-1.31,2.92-.88,3.97-.77ZM639.81,311.18c2.03-.71,7.02-2.6,8.9-1.38,1.82,1.18,2.71,14.5,3.21,17.45,1.12,6.66,3.73,15.24,4.11,21.76.06.94-.07,1.85-.61,2.65l-9.04,2.65c-1.13-.34-3.1-11.68-3.41-13.67-1.26-7.99-2.91-19.27-3.25-27.2-.03-.74-.1-1.52.1-2.25ZM620.32,323.29c.24-.96,1.35-1.2,2.14-1.53,4.34-1.8,10.54-2.68,15.17-3.97l4.73,34.45-13.88,2.04c-1.41-.4-4.41-14.01-4.93-16.31-.29-1.26,0-2.58-.28-3.85-.41-1.89-3.16-9.98-2.95-10.84ZM547.42,279.34c3.08-.44,6.22-.27,8.93,1.3,8.34,4.85,25.1,27.48,30.4,36.17.88,1.44,4.52,7.59,4.81,8.69.19.72.39,1.87-.56,2.07-1.05.22-10.41-15.64-12.39-17.22-2.9-2.69-5.51-5.06-9.71-5.44-10-.89-24,5.05-30.41-5.8-4.71-7.95-.6-18.41,8.93-19.77ZM586.79,329.64c-3.48-5.83-6.88-10.96-13.85-13.25-13.44-4.43-23.78,3.66-36.81,5.45-12.61,1.73-25.07,1-37.59-.96.26-3.69,1.37-7.29,3.15-10.55,11.95-1.57,23.38-4.89,34.43-9.47,2.62,3.91,7.62,6.83,12.32,7.55,5.99.92,13.2-1.11,18.86-.93,5.61.17,8.68,4.13,11.74,8.1,1.92,2.49,7.64,10.21,8.64,12.65.34.83.54,1.52.41,2.43-1.4.28-.91-.34-1.31-1.01ZM589.16,340.95c1.99.27,9.15-2.23,10.31-.55,2.82,8.46-5.18,8.08-11.36,8.78l1.05-8.23ZM526.73,363.07c6.19-.45,13.63-3.55,19.5-3.07,6.26.51,12.14,5.18,18.42,5.67,4.85.38,8.59-.68,12.92-2.59.72,6.1,6.76,9.49,10.23,13.94,6.18,7.92,22.66,35.3,23.51,44.44.66,7.05.58,13.56-3.09,19.66-10.51,17.44-53.05,47.07-74.09,46.5-1.41-.04-13.36-3.58-15.67-4.29-2.13-.65-4.06-1.85-6.21-2.43,8.87-6.79,10.6-18.04,4.85-27.43,4.49-5.77,8.11-11.77,10.27-18.76,5.33-17.24,4.91-40.91-10.87-52.85,8.9-11.5-13.23-15.33-20.52-18.85l-.07-3.01c10,2.61,20.41,3.83,30.81,3.08ZM504.75,479.23c-15.16-1.81-26.82-11.56-29.32-26.42-2.32-13.77,2.95-25.51,5.2-38.78-1.05,0-9.05-1.55-7.89-3.09.46-.04.97-.2,1.3-.51,5.45-5.08,14.28-11.11,20.65-15.36,3.4-2.27,12.86-8.87,15.98-10.12,1.72-.69,2.74-1.18,4.49-.28,5.7,2.95,9.76,12.64,11.07,18.52,3.87,17.41-1.09,36.78-12.96,50.21,1.62,3.25,3.64,5.42,4.09,9.38.81,7.18-3.92,17.49-12.62,16.45ZM465.87,343.78c4.05,3.12,8.32,6.12,12.84,8.57,2.02,1.1,12.91,5.66,13.39,6.22,1.18,1.39.03,5.02,1.18,6.3,3.59,1.94,22.66,7.7,22.68,11.83,0,.31-.14.5-.26.76-.36.77-12.27,8.65-14.13,9.9-10.95,7.32-22.48,14.21-32.46,22.84-1.65,1.42-3.1,3.85-5.07,5.34-8.28,6.25-17.99.5-26.77-1.61-14.04-3.38-31.64-2.28-41.42-14.6-3.18-4.01-6.17-9.52-7.31-14.48-.24-1.05.06-.51.65-.73,2.89-1.08,6.08-1.56,9.02-2.52,21.49-6.97,40.16-17.95,57.92-31.42,1.44-1.09,7.14-6.35,8.04-6.6.61-.17,1.17-.16,1.71.19ZM412.41,305.95c1.55-1.73,9.25-9.44,10.84-10.03,1.74-.64,7.74,3.54,9.96,4.13,4.66,9.57,9.24,18.76,15.84,27.24,2.03,2.6,5.05,5.2,6.86,7.72.32.45.78.72.27,1.31-5.41,3.65-10.82,7.41-16.47,10.7-12.24,7.13-27.32,14.79-41.02,18.59-1.95.54-10.03,2.86-11.23,1.51.94-21.21,10.6-45.17,24.95-61.18ZM393.72,290h-4.74s0-1.54,0-1.54c.33-.34,4.59.27,4.74,1.54ZM392.66,277.67c.67.87-2.26,3.29-3.1,1.23l.47-2.27,2.62,1.04ZM387.88,271.18c.66-.79,1.7-.81,2.68-.73,1.08,4.74-4.85,3.33-2.68.73ZM386.35,279.72h.52v1.54h-.52v-1.54ZM375.81,280.23c1.83-.38,3.78,4.47,3.16,5.14-1.81.59-3.38-4.91-3.16-5.14ZM372.63,282.02c.23-.74-.33-.91,1.06-.76l1.04,4.33c-.32,1.06-2.21.85-3.14.82-.18-.17.83-3.71,1.04-4.39ZM378.96,288.47c.84.62,0,.94-.78,1.03-2.66.32-5.96.17-8.7.51.22-1.03,1.08-.87,1.85-1.02,2.48-.47,5.1-.59,7.63-.52ZM368.27,279.82c.45-1.41.98-3.76,2.79-3.19.38.36-1.34,9.23-3.15,9.77-.84-2.11-.32-4.47.36-6.58ZM362.64,285.38c.38-.37,2.35.19,2.1,1.28-.43,1.9-3.12-.28-2.1-1.28ZM363.16,290.53c.11,1.33.08.86-.79,1.01-1.85.32-3.72.43-5.53,1.04.42-2.82,4.28-1.95,6.32-2.05ZM355.78,282.29l-.53,6.17c-1.92-1.09-1.35-5.28.53-6.17ZM347.89,279.72c.91.14.91,1.03,1.19,1.66.45,1.02,2.86,7.71,2.49,8.11-1.71,1.86-4.39-8.67-3.68-9.77ZM346.04,287.44c.34.17.34.34,0,.51v-.51ZM341.03,278.69c.24,2.02-1.29,2.81-3.16,2.57.34-1.76,1.2-3.06,3.16-2.57ZM338.4,291.03c.31-1.64,1.46-2.79,1.05-4.63.46-.55,3.16,1.82,2.63,2.56l-3.68,2.06ZM345.99,309.6c-2.45-3.21-5.9-6.42-8.13-9.56-.31-.44-.73-.51-.52-1.29,2.52.4,4.75-1.42,7.12-1.57,13.58-.86,27.4-6.18,41.6-5.12,1.25.09,6.76.72,7.05,1.83-.65,2.66-1.08,5.36-1.67,8.04-.63,2.86-2.04,10.18-3.12,12.41-.29.61-.84.7-1.24,1.09-2.46,2.41-6.42,2.02-9.7,2.87,2.4-2.14,3.12-4.47.19-6.61-4.55-3.33-7.08,2.15-8.28,1.94-4.38-5.89-13.33-5.69-9.29,3.12-3.12.86-8.99-.33-11.27-2.62-1.23-1.23-1.72-3.22-2.73-4.54ZM376.33,314.95l-4.46,3.36c-2.2-1.02,1.18-4.26,2.2-4.55,1.1-.31,2.2-.07,2.27,1.19ZM361.58,312.92c.5-2.55,6.06,2.65,5.27,3.33-1.89.92-5.63-1.51-5.27-3.33ZM363.42,320.37v-.51c.34.17.34.34,0,.51ZM351.59,320.6c-.65-2.84,3.5-.38,4.49-.27,2.1.25,4.42-.12,6.55.03.08,1.64-2.68,1.85-3.08,3.45-.18.73.17,2.31,1.24,2.25,3.74-.21,5.95-7.01,8.97-4.18,2.49,2.34,1.53,4.6,6.57,3.62v-3.09s-2.63-.51-2.63-.51l13.16-2.06c.69.79-2.99,17.48-3.18,20.3-.59,8.83.11,18.72.55,27.55-6.02,1.39-12.5-1.32-16.35-5.91-2.85-3.4-1.86-5.07-2.88-9.02-2.82-10.92-8.64-21.93-13.42-32.17ZM363.16,357.92c-1.34.23-.95-.2-1.29-1.03-.96-2.33-1.55-5.2-1.34-7.72.84.11,1.1,1.88,1.31,2.57.61,2.01,1,4.1,1.32,6.17ZM385.82,381.86c-6.7,2.8-9.58,8.68-18.24,9.45-5.26.47-15.2-1.83-19.18-5.33-5.76-5.07-14.7-16.14-16.61-23.4-3.09-11.75,0-20.94,12.04-25.34,2.29-.84,10.78-2.64,12.22-.93.44.52,3.25,7.83,3.34,8.63.13,1.24-1.28,2.19-1.51,3.97-.95,7.42,2.1,10.9,7.2,15.37,12.14,10.63,27.73,6.71,41.93,1.75,18.52-6.47,35.83-17.25,52.01-27.96,3.3-.04,4.01,2.39,1.6,4.69-13.87,13.25-40.57,28.36-58.88,34.59-5.12,1.74-11.28,2.57-15.93,4.51ZM367.1,417.11c-17.28-13.89,10.38-21.19,21.61-20.08,1.42.26,1.95,2.28,2.91,3.34,11.88,13.21,26.63,12.58,42.68,15.94,12.14,2.55,25.34,10.62,35.13-1.7l7.5,1.48-1.57,8.73c-10.03-1.53-20.16-3.22-30.29-4.12-13.85-1.23-27.72-1.54-41.64-1.57-8.37-.41-20,2.8-27.9,2.08-2.89-.26-6.24-2.34-8.44-4.11ZM716.4,495.81c-.8.33-1.8,1.55-2.42,1.79-4.06,1.58-15.49-1.73-20.33-2.23-12.77-1.32-28.35,3.69-40.22,8.43-6.44,2.57-12.73,5.7-17.93,10.27-9.6,8.45-13.32,21.61-27.26,24.32-9.08,1.76-28.37,2.02-33.86-6.8-1.63-2.62-.83-5.55-.01-8.27,3.04-10.16,22.76-33.03,32.16-38.31,7.02-6.53,15.41-11.8,23.7-16.75.57-.34.91-1.17,1.06-1.26l-.53-2.06c-13.84,6.06-26.54,18.4-37.94,28.03l-11.96,13.66c-26.39,13.17-54.57,10.53-83.13,9.27-18.91-.84-37.93-2.14-56.85-3.13-2.54-.13-5.13.14-7.66.02.66-6.17-1.62-14.11-5.55-19.02-.8-1-1.66-1.01-2.35-1.56l-1.05,2.06c8.86,11.7,9.26,25.92-5.27,32.93-9.93,4.79-13.93,3.36-24.47,3.07-34.45-.95-68.85-2.72-103.25-4.12-8.9-.36-18.24,2.4-11.44-10.61,13.4-25.65,43.44-41.74,72.79-41.85.55-.85,2-.51,2.89-.52,16.54-.17,31.3,1.25,47.15,5.93,2.12.62,13.2,5.06,13.91,4.86.96-.27,1.14-1.82.61-2.58-42-17.61-98.41-16.59-130.68,18.54.66-8.65.64-17.26,3.28-25.61,8.66-27.36,42.7-41.68,69.06-47.29,35.48-7.54,72.74-5.4,108.35-.67,1.18.16,6.82.72,7.07,1.08-2.26,9.61-3.53,18.05-1.4,27.86,3.16,14.61,11.87,21.09,25.7,25.32,4.63,1.42,5.89,1.28,10.12,1.9,1.92.28,6.98,2.9,9.46,3.67,5.59,1.76,12.86,4.35,18.59,3.95,22.88-1.61,65.12-30.34,75.51-50.25,2.62-5.02,2.77-6.41,2.68-11.74-.33-19.57-17.82-43.98-30.49-58.67-.6-.7-3.21-3.87-3.42-4.38-2.15-5.21,4.36-7.56,5.61-12.23,10.03-1.33,18.09,1.09,16.18-12.14-.98-6.85-9-3-13.65-2.87.32-1.31-.81-2.94-.28-4.1.54-1.19,5.31-5.85,6.6-6.97,4.56-4,11.32-8.3,17.68-7.48,2.55.33,3.49,4.28,4.34,6.57,2.32,6.3,2.88,12.01,4.49,18.26,4.48,17.48,12.95,36.13,20.3,52.72.67,1.5,2.14,5.94,2.31,6.24.07.12,1.56.82,2.23,1.68,1.21,1.54,1.89,4.1,3.01,5.81,2.6,3.95,6.06,6.99,8.55,11.2,5.26,8.88,9.4,26.38-.9,32.98-3.76,2.41-10.68,4.66-15.09,5.85-2.3.62-3.78-.72-3.7,2.78,1.18.46,1.89.54,3.16.33,12.6-2.07,17.24-10.14,31.8-7.96,15.38,2.3,30.16,12.27,37.2,25.67,1.15,2.2,6.64,12.73,5.56,14.4Z" fill="#837075"/>
    <path d="M351.57,252.96c-1.23,1.08-1.52,2.22-3.69,2.06-2.83-.21-1.78-2.56-2.11-4.12l.52-1.03h-1.05c-.35-.26-1.58-.22-2.39-1.01-2.52-2.45-.46-7.47,2.9-8.06,1.18-.21,2.44.55,3.18.1.57-.35.91-1.93,1.56-2.62,2.87-3.06,7.09.01,7.36,3.65.06.81-.6,1.68-.41,2.43.26,1.09,2.41,1.75,2.04,4.19-.6,4.01-5.03,2.11-5.99,2.39-.35.1-1.3,1.46-1.92,2.01ZM354.2,240.1l-1.82.52-.8,4.1c3.22.16,3.62-2.11,2.62-4.63ZM348.91,246.24c.19-4.42-6.96-.82-2.9,1.07l2.9-1.07ZM356.31,248.33c.54-.53-1.05-2.06-1.58-1.54s1.05,2.06,1.58,1.54Z" fill="#837075"/>
    <path d="M482.22,136.16c.15.96,1,3.67.22,4.17l-6.19,1c-.92-.22-.7-2.46-.88-3.12.7-.04,1.41.06,2.11,0,.52-.04,1.13.11,1.6-.23.67-.49.44-1.18.51-1.83h2.63Z" fill="#89777c"/>
    <path d="M337.87,293.1c-.23,3.21,2,1.19,3.68,1.8-2.47,2.04-6,1.09-8.96,1.29v3.6c-.61-.56-1.26-.7-1.72-1.7-1.35-2.89,5.22-4.24,6.99-4.99Z" fill="#8c7b7f"/>
    <path d="M350.52,257.59l-2.63-.51c.12-.59-.09-1.41,0-2.06,2.17.16,2.46-.97,3.69-2.06.21,1.67-.69,3.19-1.05,4.63Z" fill="#8c7b7f"/>
    <path d="M349.46,267.88c-.26-2.43-.38-2.03,0-4.63.89.96.89,3.67,0,4.63Z" fill="#8c7b7f"/>
    <path d="M573.88,225.69c-.59-.37-.82-1.37,0-1.54,1.17.87,0,1.45,0,1.54Z" fill="#89777c"/>
    <path d="M574.41,231.87c-.56-.39-.82-1.37,0-1.54l.51.8-.51.74Z" fill="#89777c"/>
    <path d="M486.16,114.33l-.52-.77.52-.84c.83.19.58,1.21,0,1.61Z" fill="#89777c"/>
    <path d="M390.55,239.07l-.51-.8.51-.74c.56.39.82,1.37,0,1.54Z" fill="#89777c"/>
    <polygon points="573.88 256.56 573.36 256.26 573.88 255.53 574.4 255.84 573.88 256.56" fill="#89777c"/>
    <path d="M574.41,252.45l-.45-.32.45-.71c0,.07.09.22,0,1.03Z" fill="#89777c"/>
    <path d="M345.25,249.87h1.05s-.52,1.03-.52,1.03c-.01-.06-.48-.99-.53-1.03Z" fill="#8c7b7f"/>
    <path d="M479.58,131.53c0-.1-.35-.23-.36-.41-.01-.41.36-.58.36-.62l.52.26-.52.77Z" fill="#89777c"/>
    <path d="M391.08,244.21s-.38-.22-.45-.71c-.04-.26.19-.39.45-.32l.52.72-.52.31Z" fill="#89777c"/>
    <path d="M562.29,280.75v1.03c-.15-.14-1.1.29-1.06-.26v-.76c.3-.08.96.09,1.06,0Z" fill="#89777c"/>
    <path d="M561.76,148.51l-.44-.71.44-.32c0,.05.42.24.45.71.02.27-.19.39-.45.32Z" fill="#89777c"/>
    <path d="M561.76,169.61l-.44-.32.44-.71c.26-.07.46.05.45.32,0,.46-.45.66-.45.71Z" fill="#89777c"/>
    <path d="M393.19,205.11c.41.23,1.39-.57,1.05,1.03h-1.05c0-.34,0-.68,0-1.03Z" fill="#89777c"/>
    <path d="M390.55,225.69c0-.16-.05-.41,0-1.03l.52.26-.52.77Z" fill="#89777c"/>
    <polygon points="393.72 143.37 393.72 142.34 394.16 143.04 393.72 143.37" fill="#89777c"/>
    <polygon points="573.35 221.06 572.84 220.34 573.35 220.03 573.35 221.06" fill="#89777c"/>
    <path d="M572.83,216.94l-.52-.72.52-.31c.02.11,1.06.86,0,1.03Z" fill="#89777c"/>
    <polygon points="572.3 213.34 571.79 212.62 572.3 212.31 572.3 213.34" fill="#89777c"/>
    <polygon points="572.3 210.26 571.25 210.25 571.77 209.23 572.3 210.26" fill="#89777c"/>
    <path d="M557.55,128.96l-.47.33c-.09.38.44.58.47.7.82,3.32.7,7,1.58,10.29-1.4.58-.01.95,0,1.03.22,1.49.17,3.02.53,4.63-1.4.6-.01,1.45,0,1.54.18,1.5.53,5.18.53,6.43v9.78c0,1.17-.38,4.39-.53,5.92,0,.09-1.4.94,0,1.54-.26,1.14-.65,2.59-.43,3.73.39,2.06,3.78,8.3,4.79,11.31,4.31,12.85,7.18,29.34,8.28,42.85,1.45,17.79.89,37.05-12.45,50.62-2.59-1.7-4.51-2.43-7.56-3.03-.4-.08-.77-.54-1.83-.58-1.34-.04-1.78.48-2.39.58-11.6,1.86-17.43,11.16-13.18,22.1-10.44,4.57-21.59,7.79-32.99,9.22-4.79.6-11.22,1.21-16,1.1-.58-.01-.41-1.04-2.11,0-20.22-.97-41.16-5.52-58.83-15.35-18.64-10.37-28.24-28.79-31.78-48.97l.44-.32-.44-.71c-.16-1.1-.45-2.61-.53-3.6.79-.07.79-1.47,0-1.54-.1-4.34-.17-9.05,0-13.38.79-.07.79-1.47,0-1.54.41-5.36,1.69-12.3,3.16-17.49h1.05c1.71,3.18,3.11,7.15,7.91,5.94,3.66-.92,4.58-4.98,5.78-5.72.48-.3,2.66.43,3.91.28,3.82-.47,7.63-5.84,7.73-9.5.08-2.98-1.91-4.73-2.04-6.26-.07-.78.79-1.6.92-2.52.73-5.14-4.2-9.3-9.2-9.49-.88-.03-1.9.64-2.56.56-.24-.03-1.97-2.85-3.31-3.57-1.58-.85-3.63-.98-5.39-1.17l-3.23-20-.53-1.03c.17-1.47-.43-2.42-.53-3.6l.44-.32-.44-.71c-.14-1.56-.39-3.08-.53-4.63l.52-.77-.52-.26c-.22-2.54-.37-5.17-.53-7.72.88-3.32.88-8,0-11.32.15-2.38.31-4.83.53-7.2l.52-.77-.52-.26c.13-1.37.39-2.72.53-4.12l.44-.71-.44-.32c.21-.84.59-1.68.53-2.57l.53-1.03c1.66-19.62,15.2-50.19,40.1-34.8,19.61,12.11,32.2,44.54,37.86,65.67.18.66-.04,2.9.88,3.12l6.19-1c.78-.51-.07-3.21-.22-4.17-.16-1.03-.43-2.05-.53-3.09.79-.07.79-1.47,0-1.54-.12-1.67-.53-4.67-.53-5.92v-10.81c0-1.29.42-4.18.53-5.92.79-.07.79-1.47,0-1.54.07-1.24.37-2.78.53-4.12l.44-.71-.44-.32c2.15-27.38,22.05-65.07,50.84-32.42,15.63,17.72,18.28,37.85,24.49,59.18ZM553.87,207.17c-6.92-1.14-5.3,2.68-7.12,7.2-1.23,3.05-3.35,6.03-5.8,8.23-.72.65-2.41,1.27-2.73,1.7-.8,1.06-2.97,10.79-3.17,12.6-.62,5.76-.42,23.81,5.16,27.09,5.89,3.46,8.57-3.46,9.98-7.67,3.82-11.42,3.12-21.48-2.01-32.33,3.55-4.86,6.07-10.73,5.69-16.81ZM464.38,226.8c5.62-3.62,10.7-10.69,9.18-17.61-7.02-2.33-5.65,1.97-7.42,6.2-1.18,2.82-3.06,6.76-6.19,7.85-2.93,1.01-5.89,1.1-8.13,4.15-4.51,6.13-2.69,27.28.12,34.31,2.6,6.53,11.82,7.27,15.11.38,1.98-4.13,1.48-14.93.93-19.65-.61-5.32-2.32-10.46-3.61-15.62ZM512.25,281.26c-3.49-6.19-4.68-11.72-5.26-18.78-.12-1.48,1.28-9.45-1.85-8.48-1.04.32-1.13,6.4-1.46,7.84-.91,4.07-3.92,9.98-5.81,13.88-.67,1.38-5.29,8.95-4.59,9.66,1.05.21,1.41-.21,2.13-.74,2.95-2.17,8.19-17.3,9.19-17.27,1.31,5.68,3.48,13.63,7.79,17.87.59.58,1.81.52,1.95.66.16.15-.47,1.34.78,1.02l.7-1.67-3.59-3.98ZM564.26,259.27c-3.28-3.01-8.41,1.39-8.84,5.26-.5,4.62,3.36,8.67,7.39,5.15-.31-2.11-1.85-.81-2.92-.85-4.64-.17-2-10.36,2.94-7.9,1.24.81.08,2.37-.87,2.81l-2.03-1-.72,1.21.42,1.03c3.85,2.63,7.9-2.7,4.64-5.7ZM430.07,271.49c-.74,4.14,4.63,2.85,5.55.03,2.33-7.13-9.25-7.43-10.71-1.21s2.25,9.8,8.29,9.92l.55-2.05c-4.67-.49-7.46-1.09-6.86-6.44s8.59-5.14,6.36.05l-3.18-.29Z" fill="#fffefe"/>
    <path d="M352.62,473.7c21.13-.08,51.19,17.93,61.53,35.86,3.26,5.66,5.69,10.94,4.84,17.65-9.93,4.79-13.93,3.36-24.47,3.07-34.45-.95-68.85-2.72-103.25-4.12-8.9-.36-18.24,2.4-11.44-10.61,13.4-25.65,43.44-41.74,72.79-41.85Z" fill="#fefefe"/>
    <path d="M479.58,316.76c-.23,1.77,2.55,1.66,3.69,2.06,23.73,8.25,47.45,8.33,70.96.11,27.22-9.52,43.71,22.87,25.46,39.79-13.52,12.54-25.52-3.15-38.09-1.18-2.56.4-5.76,1.75-8.72,2.28-38.25,6.96-75.24-17.14-92.38-49.4-.85-1.61-3.39-6.34-3.6-7.81-.12-.8-.01-.89.8-.78,4.36,1.71,8.79,3.28,13.32,4.49s10.72,1.73,14.78,3.06,8.48,7.22,13.78,7.38Z" fill="#fefefe"/>
    <path d="M492.09,358.58c1.18,1.39.03,5.02,1.18,6.3,3.59,1.94,22.66,7.7,22.68,11.83,0,.31-.14.5-.26.76-.36.77-12.27,8.65-14.13,9.9-10.95,7.32-22.48,14.21-32.46,22.84-1.65,1.42-3.1,3.85-5.07,5.34-8.28,6.25-17.99.5-26.77-1.61-14.04-3.38-31.64-2.28-41.42-14.6-3.18-4.01-6.17-9.52-7.31-14.48-.24-1.05.06-.51.65-.73,2.89-1.08,6.08-1.56,9.02-2.52,21.49-6.97,40.16-17.95,57.92-31.42,1.44-1.09,7.14-6.35,8.04-6.6.61-.17,1.17-.16,1.71.19,4.05,3.12,8.32,6.12,12.84,8.57,2.02,1.1,12.91,5.66,13.39,6.22ZM468.38,353.89c-3.76.65-4.32,6.98-.37,8.38,6.66,2.37,6.57-9.46.37-8.38ZM442.04,375.52c-3.21.69-3.39,6.52-1.11,8.07,6.87,4.66,10.67-10.12,1.11-8.07ZM486.83,376.56c-6.91,1.27-2.32,12.01,4.08,7.61,5.06-3.47,1.09-8.56-4.08-7.61ZM411.5,389.41c-5.5.92-4.6,10.07,2.38,8.54,5.17-1.13,4.3-9.66-2.38-8.54ZM435.75,399.21c-6.49-2.37-7.66,8.73-2,7.38,3.64-.87,4.05-4.79,2-7.38ZM456.26,400.22c-3.78,1.09-3.56,9.38,2.81,7.39,4.79-1.49,2.9-9.04-2.81-7.39Z" fill="#bfdcaa"/>
    <path d="M710.85,481.42c1.15,2.2,6.64,12.73,5.56,14.4-.8.33-1.8,1.55-2.42,1.79-4.06,1.58-15.49-1.73-20.33-2.23-12.77-1.32-28.35,3.69-40.22,8.43-6.44,2.57-12.73,5.7-17.93,10.27-9.6,8.45-13.32,21.61-27.26,24.32-9.08,1.76-28.37,2.02-33.86-6.8-1.63-2.62-.83-5.55-.01-8.27,3.04-10.16,22.76-33.03,32.16-38.31,15.67-8.79,38.71-12.37,56.61-12.88,16.34-.47,33.62.47,47.7,9.28Z" fill="#fefefe"/>
    <path d="M394.9,533.64c1.66,0,3.31-.04,4.96-.1-.04-.07-.09-.12-.18-.15-2.61-.61-6.75.61-9.65-.52.13.25.24.49.35.74,1.5.02,3.01.03,4.51.03Z" fill="#797f89"/>
    <path d="M308.76,529.99l-5.04-.12c-.04.07-.06.15-.1.22,1.71-.05,3.43-.09,5.14-.1Z" fill="#797f89"/>
    <path d="M480.63,414.02c-1.05,0-9.05-1.55-7.89-3.09.46-.04.97-.2,1.3-.51,5.45-5.08,14.28-11.11,20.65-15.36,3.4-2.27,12.86-8.87,15.98-10.12,1.72-.69,2.74-1.18,4.49-.28,5.7,2.95,9.76,12.64,11.07,18.52,3.87,17.41-1.09,36.78-12.96,50.21,1.62,3.25,3.64,5.42,4.09,9.38.81,7.18-3.92,17.49-12.62,16.45-15.16-1.81-26.82-11.56-29.32-26.42-2.32-13.77,2.95-25.51,5.2-38.78Z" fill="#fefefe"/>
    <path d="M629.36,527.16c2.52-3.23,4.89-6.08,7.59-8.49.34-.92.84-1.83,1.53-2.69-4.11,2.49-10.66,12.6-14.29,16.38-1.23,1.28-3.71,3.02-5.61,4.75,4.01-2.88,7.79-6.12,10.78-9.95Z" fill="#c1c7d2"/>
    <path d="M387.46,367.13c.94-21.21,10.6-45.17,24.95-61.18,1.55-1.73,9.25-9.44,10.84-10.03,1.74-.64,7.74,3.54,9.96,4.13,4.66,9.57,9.24,18.76,15.84,27.24,2.03,2.6,5.05,5.2,6.86,7.72.32.45.78.72.27,1.31-5.41,3.65-10.82,7.41-16.47,10.7-12.24,7.13-27.32,14.79-41.02,18.59-1.95.54-10.03,2.86-11.23,1.51ZM424.41,305.83c.33.34,2.28,1.1,2.81,1.15,7.27.69,3.25-8.65-1.22-6.82-2.2.9-3.2,3.99-1.59,5.66ZM424.12,315.32c-2.7.79-3.48,5.63-.87,7.33,6.28,4.08,8.89-9.66.87-7.33ZM405.69,329.2c-4.1.83-3.55,8.9,2.93,7,4.22-1.24,1.92-7.99-2.93-7ZM439.94,329.2c-6.1,1.24-1.85,12.32,4.39,6.37,3.56-3.39-1.07-7.05-4.39-6.37ZM419.37,343.1c-2.82.84-2.74,6.25,1.07,7.02,6.53,1.32,5.13-8.86-1.07-7.02ZM401.98,356.74c3.03-3.25-.99-8.33-4.87-6.04-4.08,2.4.94,10.25,4.87,6.04Z" fill="#bfdcaa"/>
    <path d="M365.09,364.28c12.14,10.63,27.73,6.71,41.93,1.75,18.52-6.47,35.83-17.25,52.01-27.96,3.3-.04,4.01,2.39,1.6,4.69-13.87,13.25-40.57,28.36-58.88,34.59-5.12,1.74-11.28,2.57-15.93,4.51-6.7,2.8-9.58,8.68-18.24,9.45-5.26.47-15.2-1.83-19.18-5.33-5.76-5.07-14.7-16.14-16.61-23.4-3.09-11.75,0-20.94,12.04-25.34,2.29-.84,10.78-2.64,12.22-.93.44.52,3.25,7.83,3.34,8.63.13,1.24-1.28,2.19-1.51,3.97-.95,7.42,2.1,10.9,7.2,15.37Z" fill="#c8c1e8"/>
    <path d="M363.98,532.87c7.35.02,14.69.31,22.03.63-.11-.18-.2-.35-.31-.53l-38.28-1.34c5.52.41,11.04.83,16.56,1.23Z" fill="#c1c7d2"/>
    <path d="M476.93,416.09l-1.57,8.73c-10.03-1.53-20.16-3.22-30.29-4.12-13.85-1.23-27.72-1.54-41.64-1.57-8.37-.41-20,2.8-27.9,2.08-2.89-.26-6.24-2.34-8.44-4.11-17.28-13.89,10.38-21.19,21.61-20.08,1.42.26,1.95,2.28,2.91,3.34,11.88,13.21,26.63,12.58,42.68,15.94,12.14,2.55,25.34,10.62,35.13-1.7l7.5,1.48Z" fill="#797f89"/>
    <path d="M362.63,320.37c.08,1.64-2.68,1.85-3.08,3.45-.18.73.17,2.31,1.24,2.25,3.74-.21,5.95-7.01,8.97-4.18,2.49,2.34,1.53,4.6,6.57,3.62v-3.09s-2.63-.51-2.63-.51l13.16-2.06c.69.79-2.99,17.48-3.18,20.3-.59,8.83.11,18.72.55,27.55-6.02,1.39-12.5-1.32-16.35-5.91-2.85-3.4-1.86-5.07-2.88-9.02-2.82-10.92-8.64-21.93-13.42-32.17-.65-2.84,3.5-.38,4.49-.27,2.1.25,4.42-.12,6.55.03Z" fill="#cebcaa"/>
    <path d="M387.09,315.44c-2.46,2.41-6.42,2.02-9.7,2.87,2.4-2.14,3.12-4.47.19-6.61-4.55-3.33-7.08,2.15-8.28,1.94-4.38-5.89-13.33-5.69-9.29,3.12-3.12.86-8.99-.33-11.27-2.62-1.23-1.23-1.72-3.22-2.73-4.54-2.45-3.21-5.9-6.42-8.13-9.56-.31-.44-.73-.51-.52-1.29,2.52.4,4.75-1.42,7.12-1.57,13.58-.86,27.4-6.18,41.6-5.12,1.25.09,6.76.72,7.05,1.83-.65,2.66-1.08,5.36-1.67,8.04-.63,2.86-2.04,10.18-3.12,12.41-.29.61-.84.7-1.24,1.09Z" fill="#cebcaa"/>
    <path d="M547.42,279.34c3.08-.44,6.22-.27,8.93,1.3,8.34,4.85,25.1,27.48,30.4,36.17.88,1.44,4.52,7.59,4.81,8.69.19.72.39,1.87-.56,2.07-1.05.22-10.41-15.64-12.39-17.22-2.9-2.69-5.51-5.06-9.71-5.44-10-.89-24,5.05-30.41-5.8-4.71-7.95-.6-18.41,8.93-19.77Z" fill="#7a7f89"/>
    <path d="M637.62,317.79l4.73,34.45-13.88,2.04c-1.41-.4-4.41-14.01-4.93-16.31-.29-1.26,0-2.58-.28-3.85-.41-1.89-3.16-9.98-2.95-10.84.24-.96,1.35-1.2,2.14-1.53,4.34-1.8,10.54-2.68,15.17-3.97Z" fill="#da9dad"/>
    <path d="M407.45,181.4c5.01-1.41,12.84.64,11.54,6.98-.25,1.2-1.59,1.66-1.6,2.58,0,1.06,2,2.01,2.42,3.32,1.86,5.82-4.27,13.37-10.03,8.77-1.14.25-1.79,7.7-6.81,7.2-4.1-.4-3.66-5.9-4.49-6.47-6.06.32-10.44-3.61-9.49-9.71.75-4.75,4.82-3.92,5.53-4.89.85-1.14-1.49-5.66.75-9.04,2.93-4.42,11.38-4.88,12.16,1.24ZM404.12,186.19c-9.29,1.45-7.56,15.28,2.45,14.25,9.58-.99,7.45-15.79-2.45-14.25Z" fill="#da9dad"/>
    <path d="M655.42,351.65l-9.04,2.65c-1.13-.34-3.1-11.68-3.41-13.67-1.26-7.99-2.91-19.27-3.25-27.2-.03-.74-.1-1.52.1-2.25,2.03-.71,7.02-2.6,8.9-1.38s2.71,14.5,3.21,17.45c1.12,6.66,3.73,15.24,4.11,21.76.06.94-.07,1.85-.61,2.65Z" fill="#da9dad"/>
    <path d="M659.08,308.67c1.59,1.25,1.47,8.17,1.77,10.36,1.07,7.59,1.79,15.01,2.59,22.68.15,1.45,1.55,4.76.53,5.67-.22.2-3.74,2.34-3.97,2.34-1.74.01-2.53-6.92-2.83-8.58-1.65-8.99-2.76-18.01-3.81-27.15-.2-1.72-1-3.44-1.01-5.2-.01-1.31,2.92-.88,3.97-.77.69.07,2.3.28,2.76.64Z" fill="#7a7f89"/>
    <path d="M588.11,349.18l1.05-8.23c1.99.27,9.15-2.23,10.31-.55,2.82,8.46-5.18,8.08-11.36,8.78Z" fill="#7a7f89"/>
    <path d="M488.01,311.1c1.69.44,9.18-1.29,10.01-.51l-2.61,9.04-9.26-2.33c-.71-.62.24-1.16.29-1.57,1.76-.91,1.67-2.95,1.58-4.63Z" fill="#bfdcaa"/>
    <path d="M485.91,309.05c.24.55,1.73,1.96,2.11,2.06.09,1.68.18,3.72-1.58,4.63.06-.5-.02-1.04,0-1.54-1.67-1.34-4.37,3.03-3.16,4.63-1.14-.4-3.91-.29-3.69-2.06.72.02,1.46.13,2.13-.24.56-.36.36-1.08.5-1.3.68-1.05,1.94-1.81.26-3.08l-2.36,2.57c-.17,0-.36.02-.53,0l1.58-4.12c1.46-.22,1.69-.97,2.63-1.54,1.7-1.04,1.53-.01,2.11,0Z" fill="#aea5b3"/>
    <path d="M481.16,310.59l-1.58,4.12s-.17.36-.54.27c-2.04-.47-6.48-3.19-7.88-4.89,3.21.02,6.8.99,10.01.51Z" fill="#bfdcaa"/>
    <path d="M371.06,276.63c.38.36-1.34,9.23-3.15,9.77-.84-2.11-.32-4.47.36-6.58.45-1.41.98-3.76,2.79-3.19Z" fill="#bfdcaa"/>
    <path d="M329.05,280.36c.88-.85,3.32-.96,4.13.09,1.77,5.19-7.73,3.38-4.13-.09Z" fill="#da9dad"/>
    <path d="M351.57,289.49c-1.71,1.86-4.39-8.67-3.68-9.77.91.14.91,1.03,1.19,1.66.45,1.02,2.86,7.71,2.49,8.11Z" fill="#bfdcaa"/>
    <path d="M393.19,331.69c-.55,1.26-1.7,3.05-2.11,4.12l-3.16,1.03c.11-.99-.12-2.11,0-3.09l5.27-2.06Z" fill="#aea5b3"/>
    <path d="M374.06,313.76c1.1-.31,2.2-.07,2.27,1.19l-4.46,3.36c-2.2-1.02,1.18-4.26,2.2-4.55Z" fill="#cebcaa"/>
    <path d="M366.85,316.25c-1.89.92-5.63-1.51-5.27-3.33.5-2.55,6.06,2.65,5.27,3.33Z" fill="#cebcaa"/>
    <path d="M395.3,135.65c-.28-4.49-.29-6.78,0-11.32.88,3.32.88,8,0,11.32Z" fill="#89777c"/>
    <path d="M333.94,274.06c1.96-.57,4.1,3.54,1.49,4.03-1.99.37-3.36-2.81-1.49-4.03Z" fill="#da9dad"/>
    <path d="M373.69,281.26l1.04,4.33c-.32,1.06-2.21.85-3.14.82-.18-.17.83-3.71,1.04-4.39.23-.74-.33-.91,1.06-.76Z" fill="#c1c7d2"/>
    <path d="M391.08,335.8c-.35.93-.67,2.45-1.05,3.6l-2.63.51c.12-1.19.43-2.19.53-3.09l3.16-1.03Z" fill="#c8c1e8"/>
    <path d="M363.16,357.92c-1.34.23-.95-.2-1.29-1.03-.96-2.33-1.55-5.2-1.34-7.71.84.11,1.1,1.88,1.31,2.57.61,2.01,1,4.1,1.32,6.17Z" fill="#c8c1e8"/>
    <path d="M378.96,288.47c.84.62,0,.94-.78,1.03-2.66.32-5.96.17-8.7.51.22-1.03,1.08-.87,1.85-1.02,2.48-.47,5.1-.59,7.63-.52Z" fill="#aea5b3"/>
    <path d="M390.55,270.46c1.08,4.74-4.85,3.33-2.68.73.66-.79,1.7-.81,2.68-.73Z" fill="#da9dad"/>
    <path d="M378.96,285.37c-1.81.59-3.38-4.91-3.16-5.14,1.83-.38,3.78,4.47,3.16,5.14Z" fill="#bfdcaa"/>
    <path d="M342.09,288.97l-3.68,2.07c.31-1.64,1.46-2.79,1.05-4.63.46-.55,3.16,1.82,2.63,2.56Z" fill="#c8c1e8"/>
    <path d="M388.97,342.49c-.6,2-1.05,4.15-1.58,6.17h-.53c.14-2.09.35-4.16.53-6.17h1.58Z" fill="#c8c1e8"/>
    <path d="M355.25,288.46c-1.92-1.09-1.35-5.28.53-6.17l-.53,6.17Z" fill="#bfdcaa"/>
    <path d="M630.78,464.95c.46-.2.82-1.06,1.86-1.04,3.86,2.89-.22,2.47-1.33,3.1l-.53-2.06Z" fill="#8c7b7f"/>
    <path d="M363.16,290.53c.11,1.33.08.86-.79,1.01-1.85.32-3.72.43-5.53,1.04.42-2.82,4.28-1.95,6.32-2.05Z" fill="#cebcaa"/>
    <path d="M335.24,288.98c.01-1.71-.32-3.67.78-5.14,1.22,1.13,1.55,5.19-.78,5.14Z" fill="#da9dad"/>
    <path d="M392.66,277.67c.67.87-2.26,3.29-3.1,1.23l.47-2.27,2.62,1.04Z" fill="#8c7b7f"/>
    <path d="M481.82,314.83c-.2,0-.41,0-.62-.02-.39-.02-.76-.06-1.09-.11.57-1.88,1.14-3.76,1.71-5.63.21.26,1.42,1.84.98,3.84-.2.91-.67,1.56-.98,1.92Z" fill="#89777c"/>
    <path d="M390.03,339.4c-.34,1.01-.75,2.1-1.05,3.09h-1.58c.08-.85-.08-1.73,0-2.57l2.63-.51Z" fill="#89777c"/>
    <path d="M341.03,278.69c.24,2.02-1.29,2.81-3.16,2.57.34-1.76,1.2-3.06,3.16-2.57Z" fill="#da9dad"/>
    <path d="M393.72,290h-4.74s0-1.54,0-1.54c.33-.34,4.59.27,4.74,1.54Z" fill="#aea5b3"/>
    <path d="M424.27,494.28c-.73-.96-2.69-1.88-.73-3.03l1.49-.09c.56.13.22,1,.3,1.06l-1.05,2.06Z" fill="#aea5b3"/>
    <polygon points="394.33 272.43 394.24 270.46 396.87 271.75 395.65 272.94 394.33 272.43" fill="#da9dad"/>
    <path d="M366.32,253.99c-1.64.24-2.87-.93-2.63-2.57,1.64-.24,2.87.93,2.63,2.57Z" fill="#da9dad"/>
    <path d="M357.36,270.46c.44.44-1.4,3.51-2.63,3.08-.64-1.14,2.03-3.69,2.63-3.08Z" fill="#da9dad"/>
    <path d="M552.28,276.63c-.83.87-3.41.86-4.21,0,.6-.1,1.05-.62,2.39-.58,1.05.03,1.43.5,1.83.58Z" fill="#89777c"/>
    <path d="M355.78,265.31v2.05c-2.76.22-3.24-2.77,0-2.05Z" fill="#da9dad"/>
    <path d="M362.64,285.38c.38-.37,2.35.19,2.1,1.28-.43,1.9-3.12-.28-2.1-1.28Z" fill="#aea5b3"/>
    <path d="M360.52,264.79h-1.57c-.06-1.07-.2-1.93.79-2.56.99.63.85,1.49.79,2.56Z" fill="#da9dad"/>
    <path d="M371.06,248.85c.13,1.27.04,2.71-1.57,2.57-.13-1.27-.04-2.71,1.57-2.57Z" fill="#da9dad"/>
    <path d="M400.56,272.51l-1.05.51c-.16-2.43-1.23-3.11-2.11-5.15h.53c.5,1.01,1.95,3.47,2.63,4.63Z" fill="#cebcaa"/>
    <path d="M387.39,348.67c-.22.83.36,2.26-1.05,2.57-.49-.94.5-2.22.52-2.57h.53Z" fill="#89777c"/>
    <path d="M368.43,257.08c.2,1.23-.25,2.18-1.57,2.05l.53-2.05h1.04Z" fill="#da9dad"/>
    <path d="M396.87,277.66c-.55.53-2.11-1.02-1.58-1.54s2.11,1.02,1.58,1.54Z" fill="#aea5b3"/>
    <path d="M559.66,171.15c-1.4-.6,0-1.45,0-1.54,1.05.77.08,1.2,0,1.54Z" fill="#89777c"/>
    <path d="M392.66,225.18c.02-.39-.07-.66,0-1.54.79.07.79,1.47,0,1.54Z" fill="#89777c"/>
    <path d="M488.3,113.26c.01-.23-.04-.9,0-1.61.81.08.81,1.53,0,1.61Z" fill="#89777c"/>
    <path d="M481.69,133.07c-.08-.88.02-1.33,0-1.54.79.07.79,1.47,0,1.54Z" fill="#89777c"/>
    <path d="M392.66,240.1c-.07-.94.01-1.06,0-1.54.79.07.79,1.47,0,1.54Z" fill="#89777c"/>
    <path d="M559.66,147.48c-.01-.09-1.4-.94,0-1.54.07.33,1.05.77,0,1.54Z" fill="#89777c"/>
    <path d="M557.55,129.99c-.03-.12-.56-.33-.47-.7l.47-.33c.04.13.57.34.52.72l-.52.31Z" fill="#89777c"/>
    <path d="M397.4,154.69h-1.05c-.21-.55.52-.96.52-1.03l.53,1.03Z" fill="#89777c"/>
    <path d="M393.19,244.73c-.22-1.24.01-.96,0-1.03l.44.71-.44.32Z" fill="#89777c"/>
    <path d="M396.35,150.05c-.07-.78,0-.96,0-1.03l.44.71-.44.32Z" fill="#89777c"/>
    <path d="M401.47,116.48s-.53.09-.53-.32l.53-.75.45.33-.45.74Z" fill="#89777c"/>
    <path d="M400.94,121.84c0-.07-.06-.44,0-1.07l.53.27-.53.8Z" fill="#89777c"/>
    <path d="M559.13,141.31c-.01-.07-1.4-.45,0-1.03.06.22.85.44,0,1.03Z" fill="#89777c"/>
    <path d="M395.82,206.14c.08-.27-.06-.7,0-1.03h.78c.56-.04.14.79.27,1.03h-1.05Z" fill="#89777c"/>
    <path d="M488.84,107.37s-.53.09-.53-.32l.53-.75.45.33-.45.74Z" fill="#89777c"/>
    <path d="M395.82,144.39c-.05-.58,0-.95,0-1.03l.52.26-.52.77Z" fill="#89777c"/>
    <path d="M402.54,111.65l-.54,1.07c0-.08-.74-.53-.53-1.07h1.07Z" fill="#89777c"/>
    <rect x="386.35" y="279.72" width=".52" height="1.54" fill="#fff"/>
    <path d="M352.62,473.7c.55-.85,2-.51,2.89-.52,16.54-.17,31.3,1.25,47.15,5.93,2.12.62,13.2,5.06,13.91,4.86.96-.27,1.14-1.82.61-2.58-42-17.61-98.41-16.59-130.68,18.54.66-8.65.64-17.26,3.28-25.61,8.66-27.36,42.7-41.68,69.06-47.29,35.48-7.54,72.74-5.4,108.35-.67,1.18.16,6.82.72,7.07,1.08-2.26,9.61-3.53,18.05-1.4,27.86,3.16,14.61,11.87,21.09,25.7,25.32,4.63,1.42,5.89,1.28,10.12,1.9,1.92.28,6.98,2.9,9.46,3.67,5.59,1.76,12.86,4.35,18.59,3.95,22.88-1.61,65.12-30.34,75.51-50.25,2.62-5.02,2.77-6.41,2.68-11.74-.33-19.57-17.82-43.98-30.49-58.67-.6-.7-3.21-3.87-3.42-4.38-2.15-5.21,4.36-7.56,5.61-12.23,10.03-1.33,18.09,1.09,16.18-12.14-.98-6.85-9-3-13.65-2.87.32-1.31-.81-2.94-.28-4.1s5.31-5.85,6.6-6.97c4.56-4,11.32-8.3,17.68-7.48,2.55.33,3.49,4.28,4.34,6.57,2.32,6.3,2.88,12.01,4.49,18.26,4.48,17.48,12.95,36.13,20.3,52.72.67,1.5,2.14,5.94,2.31,6.24.07.12,1.56.82,2.23,1.68,1.21,1.54,1.89,4.1,3.01,5.81,2.6,3.95,6.06,6.99,8.55,11.2,5.26,8.88,9.4,26.38-.9,32.98-3.76,2.41-10.68,4.66-15.09,5.85-2.3.62-3.78-.72-3.7,2.78,1.18.46,1.89.54,3.16.33,12.6-2.07,17.24-10.14,31.8-7.96,15.38,2.3,30.16,12.27,37.2,25.67-14.08-8.81-31.35-9.75-47.7-9.28-17.9.51-40.94,4.09-56.61,12.88,7.02-6.53,15.41-11.8,23.7-16.75.57-.34.91-1.17,1.06-1.26,1.11-.63,5.19-.21,1.33-3.1-1.03-.02-1.4.84-1.86,1.04-13.84,6.06-26.54,18.4-37.94,28.03l-11.96,13.66c-26.39,13.17-54.57,10.53-83.13,9.27-18.91-.84-37.93-2.14-56.85-3.13-2.54-.13-5.13.14-7.66.02.66-6.17-1.62-14.11-5.55-19.02-.8-1-1.66-1.01-2.35-1.56-.08-.06.26-.93-.3-1.06l-1.49.09c-1.96,1.15,0,2.07.73,3.03,8.86,11.7,9.26,25.92-5.27,32.93.85-6.71-1.58-11.99-4.84-17.65-10.34-17.93-40.4-35.94-61.53-35.86ZM431.23,459.91c5.04-1.2,13.37-.14,13.55-7.11.1-3.71-6.14-5.46-7.09-7.39-.76-1.54-.62-6.05-1.45-8.36-3.5-9.84-12.33,2.18-18.18,3.11-3.71.59-7.22-1.8-11.75.84-5.49,3.19,1.77,8.13,1.57,9.22-9.37,7.93-8.87,18.08,6.02,12.78,4.49,2.8,8.49,11.72,13.94,5.21,2.13-2.54,2.32-5.32,3.36-8.3ZM375.78,458.78c.57,2.69,4.14,6.38,6.9,3.88.91-.82,1.08-2.82,2.11-3.6,1.49-1.13,4.89-1.45,6.23-3.69,1.9-3.16-1.37-4.7-1.92-6.75-.59-2.18.76-6.25-2.24-7.58-2.8-1.25-5.58,2.2-8.43,3.07-2.37.73-9.24.75-10.27,2.83-1.3,2.62,1.33,4.35,1.2,5.83-.14,1.58-2.8,3.42-1.74,5.49.94,1.84,6.35,1,8.16.52Z" fill="#db9eae"/>
    <path d="M346.04,287.44c.34.17.34.34,0,.51v-.51Z" fill="#fff"/>
    <path d="M363.42,319.85c.34.17.34.34,0,.51v-.51Z" fill="#cebcaa"/>
    <path d="M354.2,240.1c1,2.51.6,4.78-2.62,4.63l.8-4.1,1.82-.52Z" fill="#da9dad"/>
    <path d="M348.91,246.24l-2.9,1.07c-4.06-1.88,3.08-5.49,2.9-1.07Z" fill="#da9dad"/>
    <path d="M356.31,248.33c-.53.52-2.11-1-1.58-1.54s2.11,1,1.58,1.54Z" fill="#da9dad"/>
    <path d="M464.38,226.8c1.28,5.16,2.99,10.3,3.61,15.62.54,4.73,1.04,15.52-.93,19.65-3.29,6.89-12.51,6.15-15.11-.38-2.8-7.03-4.63-28.18-.12-34.31,2.24-3.04,5.2-3.14,8.13-4.15,3.13-1.08,5.02-5.02,6.19-7.85,1.76-4.23.39-8.53,7.42-6.2,1.52,6.91-3.56,13.99-9.18,17.61Z" fill="#7e6b70"/>
    <path d="M553.87,207.17c.38,6.08-2.13,11.96-5.69,16.81,5.13,10.85,5.83,20.92,2.01,32.33-1.41,4.22-4.09,11.14-9.98,7.67-5.58-3.28-5.78-21.33-5.16-27.09.19-1.81,2.37-11.54,3.17-12.6.33-.43,2.01-1.06,2.73-1.7,2.45-2.2,4.57-5.18,5.8-8.23,1.82-4.52.2-8.34,7.12-7.2Z" fill="#7f6d72"/>
    <path d="M512.25,281.26c.77,1.37.82,2.6,2.66,3.39l-.56,1.24c-.14-.14-1.37-.09-1.95-.66-4.31-4.23-6.48-12.19-7.79-17.87-1-.03-6.25,15.1-9.19,17.27-.72.53-1.08.95-2.13.74-.71-.72,3.92-8.28,4.59-9.66,1.89-3.89,4.91-9.8,5.81-13.88.32-1.44.42-7.52,1.46-7.84,3.13-.97,1.73,7,1.85,8.48.58,7.07,1.77,12.6,5.26,18.78Z" fill="#8c7b7f"/>
    <path d="M430.07,271.49l3.18.29c2.24-5.19-5.77-5.35-6.36-.05s2.2,5.96,6.86,6.44l-.55,2.05c-6.04-.13-9.72-3.86-8.29-9.92s13.04-5.92,10.71,1.21c-.92,2.82-6.29,4.11-5.55-.03Z" fill="#e1aebb"/>
    <path d="M564.26,259.27c3.27,3-.79,8.32-4.64,5.7l-.42-1.03.72-1.21,2.03,1c.95-.43,2.12-2,.87-2.81-4.95-2.46-7.58,7.73-2.94,7.9,1.07.04,2.61-1.25,2.92.85-4.03,3.52-7.89-.53-7.39-5.15.42-3.87,5.56-8.27,8.84-5.26Z" fill="#e1aebb"/>
    <path d="M512.25,281.26l3.59,3.98-.7,1.67c-1.25.31-.63-.87-.78-1.02l.56-1.24c-1.84-.79-1.89-2.01-2.66-3.39Z" fill="#aea5b3"/>
    <path d="M431.23,459.91c-1.04,2.98-1.23,5.75-3.36,8.3-5.45,6.5-9.45-2.41-13.94-5.21-14.89,5.31-15.4-4.85-6.02-12.78.2-1.09-7.06-6.03-1.57-9.22,4.53-2.64,8.04-.24,11.75-.84,5.84-.94,14.67-12.95,18.18-3.11.82,2.31.69,6.83,1.45,8.36.95,1.93,7.18,3.69,7.09,7.39-.18,6.97-8.52,5.91-13.55,7.11ZM433.16,435.17c-5.59.09-9.88,6.23-15.21,6.93-3.38.45-7.95-1.42-11.55.77-1.29,3.71,4.75,5.49,4.2,7.85-.05.23-3.21,2.58-3.71,3.15-1.43,1.66-4.43,5.93-2.94,8.02,2.91,2.07,8.55-1.39,10.85-.84.72.17,2.44,1.54,3.15,2.09,1.4,1.08,5.16,5.56,6.56,5.43,3.63-.33,3.88-10.2,4.47-10.61,3.35-.37,15.51-.07,13.65-6.04-.44-1.4-5.33-3.68-6.26-4.86-1.91-2.42-.72-8.94-3.21-11.9Z" fill="#8a7577"/>
    <path d="M375.78,458.78c-1.81.47-7.21,1.32-8.16-.52-1.05-2.06,1.6-3.9,1.74-5.49.13-1.48-2.5-3.21-1.2-5.83,1.03-2.09,7.9-2.1,10.27-2.83,2.85-.87,5.63-4.32,8.43-3.07,3,1.34,1.65,5.4,2.24,7.58.55,2.05,3.82,3.59,1.92,6.75-1.34,2.24-4.74,2.56-6.23,3.69-1.03.78-1.2,2.78-2.11,3.6-2.76,2.5-6.33-1.18-6.9-3.88ZM370.05,447.49c-.86,2.1,1.73,3.56,1.54,5.33-.14,1.35-3.91,4.53-.78,4.94,1.56.21,3.72-1.14,5.7-.46,1.22.42,3,6.42,5.01,3.7.69-.94.9-2.5,1.9-3.29,1.14-.9,5.52-1.91,6.02-3.41.74-1.86-1.61-3.02-1.94-4.13-.42-1.44.43-6.75-1.49-7.32-1.08-.32-6.22,2.91-8.07,3.35-2.39.57-5.41.37-7.89,1.29Z" fill="#8a7577"/>
    <path d="M486.83,376.56c5.18-.95,9.14,4.14,4.08,7.61-6.41,4.39-10.99-6.34-4.08-7.61Z" fill="#fafcf9"/>
    <path d="M411.5,389.41c6.68-1.12,7.56,7.41,2.38,8.54-6.99,1.53-7.88-7.62-2.38-8.54Z" fill="#fafcf9"/>
    <path d="M442.04,375.52c9.56-2.06,5.76,12.72-1.11,8.07-2.28-1.55-2.1-7.38,1.11-8.07Z" fill="#fafcf9"/>
    <path d="M468.38,353.89c6.21-1.08,6.3,10.75-.37,8.38-3.96-1.41-3.39-7.73.37-8.38Z" fill="#fafcf9"/>
    <path d="M456.26,400.22c5.71-1.65,7.6,5.9,2.81,7.39-6.37,1.98-6.59-6.3-2.81-7.39Z" fill="#fafcf9"/>
    <path d="M435.75,399.21c2.05,2.6,1.64,6.52-2,7.38-5.66,1.35-4.49-9.75,2-7.38Z" fill="#fafcf9"/>
    <path d="M439.94,329.2c3.31-.67,7.94,2.99,4.39,6.37-6.24,5.94-10.48-5.13-4.39-6.37Z" fill="#fafcf9"/>
    <path d="M424.12,315.32c8.01-2.33,5.41,11.41-.87,7.33-2.61-1.7-1.83-6.54.87-7.33Z" fill="#fafcf9"/>
    <path d="M405.69,329.2c4.85-.98,7.15,5.77,2.93,7-6.48,1.9-7.03-6.17-2.93-7Z" fill="#fafcf9"/>
    <path d="M401.98,356.74c-3.93,4.21-8.95-3.64-4.87-6.04s7.9,2.79,4.87,6.04Z" fill="#fafcf9"/>
    <path d="M419.37,343.1c6.2-1.84,7.6,8.35,1.07,7.02-3.81-.77-3.89-6.18-1.07-7.02Z" fill="#fafcf9"/>
    <path d="M424.41,305.83c-1.61-1.67-.6-4.76,1.59-5.66,4.46-1.84,8.49,7.5,1.22,6.82-.53-.05-2.48-.81-2.81-1.15Z" fill="#fafcf9"/>
    <path d="M404.12,186.19c9.9-1.54,12.02,13.27,2.45,14.25-10.01,1.03-11.74-12.8-2.45-14.25ZM404.12,188.24c-6.76,1.27-4.41,11.7,2.92,10.07,6.22-1.38,4.36-11.44-2.92-10.07Z" fill="#8a7577"/>
    <path d="M433.16,435.17c2.49,2.96,1.3,9.48,3.21,11.9.93,1.18,5.82,3.46,6.26,4.86,1.86,5.96-10.3,5.67-13.65,6.04-.58.4-.84,10.27-4.47,10.61-1.4.13-5.15-4.35-6.56-5.43-.71-.54-2.43-1.92-3.15-2.09-2.3-.55-7.94,2.91-10.85.84-1.48-2.09,1.51-6.36,2.94-8.02.49-.57,3.65-2.92,3.71-3.15.55-2.36-5.48-4.14-4.2-7.85,3.6-2.19,8.16-.33,11.55-.77,5.33-.7,9.61-6.84,15.21-6.93Z" fill="#fdf8c5"/>
    <path d="M370.05,447.49c2.48-.92,5.5-.72,7.89-1.29,1.85-.44,6.99-3.67,8.07-3.35,1.92.57,1.07,5.89,1.49,7.32.33,1.11,2.68,2.28,1.94,4.13-.5,1.5-4.89,2.52-6.02,3.41-1,.79-1.2,2.35-1.9,3.29-2.01,2.72-3.79-3.28-5.01-3.7-1.98-.68-4.14.66-5.7.46-3.13-.42.64-3.59.78-4.94.18-1.78-2.4-3.24-1.54-5.33Z" fill="#fdf8c5"/>
    <path d="M404.12,188.24c7.28-1.36,9.14,8.69,2.92,10.07-7.33,1.63-9.68-8.81-2.92-10.07Z" fill="#fafcf9"/>
  </g>
</svg>